<svg xmlns="http://www.w3.org/2000/svg" width="528.471" height="310.42"><defs><clipPath id="a" clipPathUnits="userSpaceOnUse"><path d="M0 0h397v233H0Z"/></clipPath><clipPath id="b" clipPathUnits="userSpaceOnUse"><path d="M0 0h397v233H0Z"/></clipPath><clipPath id="c" clipPathUnits="userSpaceOnUse"><path d="M0 0h397v233H0Z"/></clipPath><clipPath id="d" clipPathUnits="userSpaceOnUse"><path d="M0 0h397v233H0Z"/></clipPath><clipPath id="e" clipPathUnits="userSpaceOnUse"><path d="M0 0h397v233H0Z"/></clipPath><clipPath id="f" clipPathUnits="userSpaceOnUse"><path d="M0 0h397v233H0Z"/></clipPath><clipPath id="g" clipPathUnits="userSpaceOnUse"><path d="M0 0h397v233H0Z"/></clipPath><clipPath id="h" clipPathUnits="userSpaceOnUse"><path d="M0 0h397v233H0Z"/></clipPath><clipPath id="i" clipPathUnits="userSpaceOnUse"><path d="M0 0h397v233H0Z"/></clipPath><clipPath id="j" clipPathUnits="userSpaceOnUse"><path d="M0 0h397v233H0Z"/></clipPath><clipPath id="k" clipPathUnits="userSpaceOnUse"><path d="M0 0h397v233H0Z"/></clipPath><clipPath id="l" clipPathUnits="userSpaceOnUse"><path d="M0 0h397v233H0Z"/></clipPath><clipPath id="m" clipPathUnits="userSpaceOnUse"><path d="M0 0h397v233H0Z"/></clipPath><clipPath id="n" clipPathUnits="userSpaceOnUse"><path d="M0 0h397v233H0Z"/></clipPath><clipPath id="o" clipPathUnits="userSpaceOnUse"><path d="M0 0h397v233H0Z"/></clipPath><clipPath id="p" clipPathUnits="userSpaceOnUse"><path d="M0 0h397v233H0Z"/></clipPath><clipPath id="q" clipPathUnits="userSpaceOnUse"><path d="M0 0h397v233H0Z"/></clipPath><clipPath id="r" clipPathUnits="userSpaceOnUse"><path d="M0 0h397v233H0Z"/></clipPath><clipPath id="s" clipPathUnits="userSpaceOnUse"><path d="M0 0h397v233H0Z"/></clipPath></defs><path d="M179.992 173.32a6 6 0 0 0-1.519-2.246q-1.003-.93-2.668-1.027a9.2 9.2 0 0 0-2.133.144c-.672.133-1.274.293-1.813.493q-.808.292-1.324.586-.517.288-.711.484v13.93q.44.293 1.078.632.638.346 1.399.637a10 10 0 0 0 1.59.465 6.5 6.5 0 0 0 1.668.121q1.762-.098 2.816-.93a5.25 5.25 0 0 0 1.594-2.074 9.7 9.7 0 0 0 .711-2.687 24 24 0 0 0 .168-2.813q0-1.32-.168-2.855a11.4 11.4 0 0 0-.688-2.86" clip-path="url(#a)" style="fill:#d8003a;fill-opacity:1;fill-rule:evenodd;stroke:none" transform="scale(1.33333)"/><path d="M169.359 139.699c.149-1.09.219-2.156.219-3.199q0-1.465-.293-2.906a8.8 8.8 0 0 0-.98-2.641 6 6 0 0 0-1.836-1.98q-1.153-.78-2.867-.879-1.864.099-2.989.879a5.8 5.8 0 0 0-1.789 1.98 7.9 7.9 0 0 0-.883 2.641 19.6 19.6 0 0 0-.218 2.906h.047q0 1.564.269 3.199.27 1.639.957 3.008.686 1.366 1.836 2.246 1.153.879 2.867.879 1.862 0 3.016-.902a6.16 6.16 0 0 0 1.785-2.25q.638-1.341.859-2.981" clip-path="url(#b)" style="fill:#d8003a;fill-opacity:1;fill-rule:evenodd;stroke:none" transform="scale(1.33333)"/><path d="M152.75 178.57q-2.073.051-3.449 1.129-1.378 1.08-1.379 3.137.001 1.862 1.379 3.309c.918.96 2.101 1.46 3.547 1.492q1.577.001 2.855-.614 1.282-.61 1.774-1.148v-7.352q-.84 0-2.118.024c-.855.019-1.722.023-2.609.023" clip-path="url(#c)" style="fill:#d8003a;fill-opacity:1;fill-rule:evenodd;stroke:none" transform="scale(1.33333)"/><path d="M63.477 95.934c2.503 0 4.527-2.071 4.527-4.614 0-2.531-2.024-4.578-4.527-4.578-2.489 0-4.524 2.047-4.524 4.578 0 2.543 2.035 4.614 4.524 4.614" clip-path="url(#d)" style="fill:#d8003a;fill-opacity:1;fill-rule:evenodd;stroke:none" transform="scale(1.33333)"/><path d="M149.273 71.855c7.829-.519 11.747-6.875 11.747-19.085 0-13.098-3.735-19.825-11.204-20.192a21 21 0 0 0-8.699 1.43c-2.25.804-3.769 1.601-4.566 2.41V67.68c4.777 3 9.023 4.394 12.722 4.175" clip-path="url(#e)" style="fill:#d8003a;fill-opacity:1;fill-rule:evenodd;stroke:none" transform="scale(1.33333)"/><path d="M204.516 186.363a12.5 12.5 0 0 1-1.789 1.469q-1.002.69-2.204 1.176-1.201.492-2.621.785-1.423.292-3.039.246-1.469 0-2.746-.562a7 7 0 0 1-2.203-1.512 7.1 7.1 0 0 1-1.469-2.246 7.1 7.1 0 0 1-.539-2.762c.032-1.039.235-1.977.61-2.805a5.9 5.9 0 0 1 1.57-2.101q1.003-.855 2.328-1.293 1.32-.44 2.891-.442h5.832v-2.121q-.001-.94-.395-1.703a4.2 4.2 0 0 0-1.027-1.308 4.5 4.5 0 0 0-1.496-.84 5.3 5.3 0 0 0-1.739-.297q-1.617-.001-2.918.391-1.294.39-2.718 1.128l-.883-2.058q1.915-1.03 3.578-1.446 1.665-.416 3.871-.417 1.326 0 2.621.441a7.2 7.2 0 0 1 2.281 1.25 6.3 6.3 0 0 1 1.59 1.984c.41.785.614 1.664.614 2.645zm-21.387-57.801q-1.3.51-2.133 1.102v17.981h-3.578v-18.422a34 34 0 0 1 2.672-1.739q1.3-.762 3.012-1.203c.882-.261 1.906-.465 3.062-.613q1.741-.217 3.652.223 1.959.44 3.43 1.789 1.47 1.347 1.469 3.55v16.415h-3.574v-14.602q-.001-2.496-1.473-3.797c-.977-.867-2.254-1.281-3.82-1.25a8.1 8.1 0 0 0-2.719.566m1.324 54.739c-.344 1.293-.875 2.433-1.594 3.429a8.5 8.5 0 0 1-2.695 2.426q-1.617.93-3.824.981-1.812.048-3.379-.5a15.7 15.7 0 0 1-3.086-1.496v12.726l-3.531-1.273.051-28.176a10.7 10.7 0 0 1 2.277-1.836c.801-.473 1.832-.91 3.09-1.301 1.254-.39 2.8-.601 4.629-.636l.05.05c1.469-.035 2.735.262 3.797.879q1.59.933 2.645 2.551t1.57 3.723c.34 1.406.512 2.89.512 4.461q-.001 2.058-.512 3.992m-25.164-36.196a9.4 9.4 0 0 1-3.039-2.593q-1.223-1.618-1.812-3.7a15.8 15.8 0 0 1-.586-4.289q-.002-2.155.66-4.14.661-1.987 1.937-3.481a9.4 9.4 0 0 1 3.086-2.375c1.207-.589 2.582-.882 4.117-.882q2.302 0 4.141.882a9.3 9.3 0 0 1 3.109 2.375q1.274 1.495 1.938 3.481c.437 1.324.66 2.703.66 4.14q.001 2.204-.59 4.289a10.8 10.8 0 0 1-1.836 3.7 9.4 9.4 0 0 1-3.113 2.593c-1.238.657-2.691.981-4.359.981-1.664 0-3.106-.324-4.313-.981m1.668 39.258a12.4 12.4 0 0 1-1.789 1.469q-1.007.69-2.207 1.176a14.7 14.7 0 0 1-2.621.785c-.945.195-1.961.277-3.035.246a6.7 6.7 0 0 1-2.746-.562 7 7 0 0 1-2.204-1.512 7.1 7.1 0 0 1-1.472-2.246 7.1 7.1 0 0 1-.539-2.762c.031-1.039.238-1.977.613-2.805a5.9 5.9 0 0 1 1.566-2.101q1.01-.855 2.329-1.293 1.324-.44 2.89-.442h5.832v-2.121q0-.94-.39-1.703a4.2 4.2 0 0 0-1.032-1.308 4.5 4.5 0 0 0-1.492-.84 5.3 5.3 0 0 0-1.742-.297q-1.615-.001-2.914.391a15.8 15.8 0 0 0-2.719 1.128l-.883-2.058q1.91-1.03 3.578-1.446 1.664-.416 3.872-.417c.882 0 1.753.148 2.621.441a7.2 7.2 0 0 1 2.277 1.25 6.4 6.4 0 0 1 1.594 1.984c.406.785.613 1.664.613 2.645zm-21.07-6.859q-.001 2.744-.653 4.75-.656 2.015-1.886 3.285a7.6 7.6 0 0 1-2.973 1.887c-1.16.406-2.461.613-3.898.613q-1.175 0-2.008-.223-.832-.217-1.864-.711l.786-2.253q.39.099.882.296c.325.129.622.211.883.243q2.397.392 3.821-.27 1.424-.656 2.156-1.887c.488-.812.808-1.738.957-2.765q.218-1.547.219-2.965v-20.141l3.578-1.222zM98.133 65.324c-2.438 7.34-5.047 12.227-12.059 12.227h-36.14v3.062H74.02v9.196c0 6.953-5.989 10.492-12.055 12.25-9.141 2.648-16.457 2.242-24.094 0-6.371-1.875-12.055-5.719-12.055-12.25V66.844c0-6.61 5.461-12.258 12.055-12.258h24.094c8.019 0 15.058-6.988 15.058-15.289V28.59h9.051c7.02 0 10.328 5.25 12.059 12.226 2.41 9.692 2.519 16.954 0 24.508m30.312 60.86c.539-1.864 1.328-3.543 2.375-5.047a12.6 12.6 0 0 1 3.922-3.653q2.35-1.395 5.488-1.343c1.762.031 3.395.254 4.899.66a12.4 12.4 0 0 1 4.066 1.933l-1.273 2.157q-1.717-1.126-3.481-1.567a15 15 0 0 0-3.671-.441q-2.454.001-4.094 1.273a9.65 9.65 0 0 0-2.645 3.188 14.5 14.5 0 0 0-1.422 4.164 27 27 0 0 0-.464 4.262c0 .816.054 1.722.171 2.718q.17 1.495.586 2.965.416 1.472 1.106 2.844.686 1.371 1.613 2.426a7.4 7.4 0 0 0 2.156 1.687q1.227.638 2.793.637 1.325.002 2.379-.195a9.6 9.6 0 0 0 2.031-.61c.657-.277 1.34-.613 2.059-1.008q1.077-.585 2.5-1.371l1.371 2.157q-2.697 2.108-5.363 3.015-2.671.905-5.711.906h-.047q-2.99 0-5.293-1.543a13.75 13.75 0 0 1-3.871-3.945 18.5 18.5 0 0 1-2.352-5.246c-.523-1.891-.753-3.723-.687-5.484q.048-2.746.859-5.539m.094-90.528c1.316-1.613 3.008-3 5.059-4.172 4.769-2.781 10.562-4.211 17.382-4.281l.118.113q9.346-.116 14.41 7.672c3.148 4.762 4.726 10.864 4.726 18.324 0 6.653-1.562 12.176-4.699 16.567-3.496 4.973-8.347 7.531-14.543 7.672q-7.013.222-14.441-4.383v28.414l-8.012-2.855zm94.598 139.387q0-2.496-1.473-3.797-1.47-1.298-3.82-1.25a8.1 8.1 0 0 0-2.719.566q-1.3.51-2.133 1.102v17.981h-3.578v-18.422a35 35 0 0 1 2.672-1.739q1.3-.762 3.012-1.203 1.321-.391 3.066-.613c1.156-.145 2.375-.07 3.648.223q1.959.44 3.43 1.789 1.47 1.347 1.469 3.55v3.204c10.191-17.164 16.051-37.2 16.051-58.61 0-26.191-8.762-50.332-23.512-69.668v23.801q-.001 13.388-2.68 18.543c-1.797 3.438-5.215 6.184-10.269 8.227q-6.149 2.414-13.293 2.636l-1.324-5.051c4.836-.656 8.246-1.312 10.222-1.972 3.891-1.313 6.555-3.328 8.016-6.031 1.176-2.2 1.754-6.399 1.754-12.614v-2.09c-5.477 2.493-11.231 3.727-17.246 3.727-3.95 0-7.438-1.234-10.442-3.727q-5.055-4.061-5.054-10.308V29.949l8.023-2.746v33.57c0 3.586 1.16 6.344 3.477 8.286 2.32 1.937 5.324 2.863 9.004 2.796 3.679-.082 7.617-1.5 11.804-4.281V38.738c-20.969-22.121-50.637-35.922-83.523-35.922-18.735 0-36.414 4.489-52.039 12.434.031.359.054.723.054 1.086v22.961c0 7.859-6.304 14.254-14.054 14.254H37.59c-6.961 0-13.063 6.066-13.063 12.984v13.016h-5.281c-4.223 11.972-6.527 24.851-6.527 38.273 0 63.52 51.484 114.992 115 114.992 39.722 0 74.746-20.121 95.418-50.726z" clip-path="url(#f)" style="fill:#d8003a;fill-opacity:1;fill-rule:evenodd;stroke:none" transform="scale(1.33333)"/><path d="M196.309 178.57q-2.068.051-3.45 1.129-1.378 1.08-1.379 3.137.001 1.862 1.379 3.309c.922.96 2.102 1.46 3.547 1.492q1.577.001 2.856-.614 1.28-.61 1.777-1.148v-7.352c-.562 0-1.266.008-2.121.024-.852.019-1.723.023-2.609.023" clip-path="url(#g)" style="fill:#d8003a;fill-opacity:1;fill-rule:evenodd;stroke:none" transform="scale(1.33333)"/><path d="M250.531 77.113q-1.43.115-2.636.114-6.805.001-10.59-3.243c-2.52-2.164-3.782-5.156-3.782-8.968V33.453h-5.488v-5.039h5.488V15.027l8.004-2.851v16.238h9.004v5.039h-9.004v31.344c0 3.008.809 5.137 2.418 6.383 1.387 1.023 3.59 1.613 6.586 1.761z" clip-path="url(#h)" style="fill:#231916;fill-opacity:1;fill-rule:nonzero;stroke:none" transform="scale(1.33333)"/><path d="M299.051 76.457h-8.016v-30.93q0-4.723-2.199-8.117-2.536-3.844-7.059-3.844c-3.672 0-8.269 1.942-13.781 5.817v37.074h-8.012V2.523L267.996 0v33.676c5.121-3.727 10.715-5.598 16.789-5.598 4.242 0 7.68 1.434 10.309 4.281q3.959 4.274 3.957 10.645z" clip-path="url(#i)" style="fill:#231916;fill-opacity:1;fill-rule:nonzero;stroke:none" transform="scale(1.33333)"/><path d="M350.414 51.559q-.002 10.746-5.488 17.882c-4.024 5.332-9.582 8.008-16.676 8.008-7.027 0-12.508-2.676-16.465-8.008q-5.372-7.136-5.371-17.882c0-6.735 1.938-12.399 5.813-17.008 4.093-4.891 9.476-7.348 16.128-7.348 6.657 0 12.075 2.457 16.247 7.348 3.875 4.609 5.812 10.273 5.812 17.008m-8.777-.055q0-7.546-2.856-12.473c-2.261-4.008-5.777-6.121-10.531-6.34-8.785.508-13.168 6.805-13.168 18.868 0 5.531.91 10.152 2.754 13.859 2.352 4.727 5.875 7.059 10.574 6.98 8.82-.07 13.227-7.031 13.227-20.894" clip-path="url(#j)" style="fill:#231916;fill-opacity:1;fill-rule:nonzero;stroke:none" transform="scale(1.33333)"/><path d="M396.352 76.457h-8.012V43.773q0-5.376-3.235-8.398c-2.156-2.008-5.031-2.98-8.617-2.902-3.804.07-7.426 1.316-10.863 3.726v40.258h-8.016v-41.25c4.614-3.355 8.86-5.551 12.731-6.574 3.656-.957 6.883-1.43 9.664-1.43 1.902 0 3.687.184 5.371.555q4.72 1.088 7.684 4.058c2.199 2.192 3.293 4.821 3.293 7.899z" clip-path="url(#k)" style="fill:#231916;fill-opacity:1;fill-rule:nonzero;stroke:none" transform="scale(1.33333)"/><path d="M200.938 147.645V128.73h-2.301v-2.496h2.301v-2.453q0-5.532 2.55-8.058 2.546-2.525 6.86-2.524h.047q.785-.001 1.371.121.589.125 1.226.368l-.781 2.156-.445-.145c-1.664-.297-2.973-.222-3.918.219q-1.424.662-2.157 1.887c-.488.816-.8 1.75-.929 2.793a23 23 0 0 0-.196 2.941l-.05 2.695h4.949v2.496h-4.949v18.915z" clip-path="url(#l)" style="fill:#231916;fill-opacity:1;fill-rule:nonzero;stroke:none" transform="scale(1.33333)"/><path d="M225.828 134.465q0-1.176-.269-2.328a7.7 7.7 0 0 0-.805-2.082 4.3 4.3 0 0 0-1.422-1.493c-.59-.374-1.273-.566-2.059-.566-.851 0-1.578.192-2.179.566a4.4 4.4 0 0 0-1.473 1.493 7.7 7.7 0 0 0-.855 2.058c-.196.75-.328 1.52-.395 2.301h9.41zm3.774 11.223q-.832.537-1.711 1.003-.887.464-1.961.809-1.177.341-2.453.488-1.273.146-2.571.051a9.9 9.9 0 0 1-2.5-.516 6.2 6.2 0 0 1-2.133-1.25c-1.171-1.011-2.097-2.316-2.765-3.902q-1.006-2.385-1.004-5.133c0-1.41.152-2.8.465-4.176q.464-2.06 1.492-3.683a8.2 8.2 0 0 1 2.672-2.629q1.642-1.008 3.992-1.008 2.256 0 3.797.738a6.6 6.6 0 0 1 2.551 2.141q1 1.406 1.445 3.399.44 1.991.488 4.503h-13.133c-.093 1.407-.007 2.68.27 3.821q.416 1.716 1.301 2.918c.59.8 1.297 1.422 2.133 1.859.832.441 1.753.649 2.765.613q1.863-.098 3.258-.589a23.5 23.5 0 0 0 2.77-1.18z" clip-path="url(#m)" style="fill:#231916;fill-opacity:1;fill-rule:nonzero;stroke:none" transform="scale(1.33333)"/><path d="M234.504 147.645v-17.836q2.057-2.303 5.094-3.332a18 18 0 0 1 3.285-.856q1.663-.271 3.918.121c-.227.457-.473.942-.735 1.446q-.39.76-.687 1.445c-.356-.063-.719-.129-1.074-.195a5 5 0 0 0-.934-.098h-.047q-1.765 0-3.015.562a9.4 9.4 0 0 0-2.231 1.399v17.344z" clip-path="url(#n)" style="fill:#231916;fill-opacity:1;fill-rule:nonzero;stroke:none" transform="scale(1.33333)"/><path d="M262.578 134.465q0-1.176-.269-2.328a7.6 7.6 0 0 0-.809-2.082 4.27 4.27 0 0 0-1.418-1.493c-.59-.374-1.273-.566-2.059-.566-.851 0-1.578.192-2.179.566a4.4 4.4 0 0 0-1.473 1.493 7.7 7.7 0 0 0-.855 2.058c-.196.75-.328 1.52-.395 2.301h9.41zm3.774 11.223q-.831.537-1.715 1.003c-.586.309-1.242.579-1.957.809q-1.177.341-2.453.488-1.273.146-2.571.051a9.9 9.9 0 0 1-2.5-.516 6.2 6.2 0 0 1-2.133-1.25c-1.175-1.011-2.097-2.316-2.765-3.902q-1.008-2.385-1.008-5.133 0-2.113.469-4.176.464-2.06 1.492-3.683a8.2 8.2 0 0 1 2.672-2.629q1.642-1.008 3.992-1.008 2.256 0 3.797.738a6.6 6.6 0 0 1 2.551 2.141q1 1.406 1.445 3.399.44 1.991.488 4.503h-13.133q-.145 2.11.27 3.821.416 1.716 1.301 2.918a6.2 6.2 0 0 0 2.133 1.859c.832.441 1.753.649 2.765.613q1.863-.098 3.258-.589a23.5 23.5 0 0 0 2.77-1.18z" clip-path="url(#o)" style="fill:#231916;fill-opacity:1;fill-rule:nonzero;stroke:none" transform="scale(1.33333)"/><path d="M284.48 147.645v-14.602q.001-2.496-1.468-3.797-1.471-1.296-3.821-1.25a8.2 8.2 0 0 0-2.718.563q-1.301.514-2.133 1.105v17.981h-3.578v-18.422a35 35 0 0 1 2.672-1.743c.863-.503 1.867-.906 3.011-1.199q1.324-.391 3.063-.613 1.741-.217 3.652.223a7.4 7.4 0 0 1 3.43 1.789q1.47 1.348 1.469 3.55v16.415z" clip-path="url(#p)" style="fill:#231916;fill-opacity:1;fill-rule:nonzero;stroke:none" transform="scale(1.33333)"/><path d="M308.539 145.832q-1.565 1.03-3.551 1.645-1.986.609-4.336.609-2.057.001-3.675-.953a8.95 8.95 0 0 1-2.727-2.5q-1.113-1.541-1.691-3.504a13.9 13.9 0 0 1-.579-3.969c0-2.023.391-3.945 1.184-5.758q1.184-2.718 3.422-4.289a8 8 0 0 1 2.496-1.148 9.6 9.6 0 0 1 2.82-.32q1.442.053 2.891.464 1.441.418 2.719 1.203l-1.028 1.911a14.6 14.6 0 0 0-2.5-.907 7.8 7.8 0 0 0-2.648-.269q-1.467.099-2.547.953c-.719.574-1.312 1.293-1.789 2.156a11.4 11.4 0 0 0-1.078 2.891 14 14 0 0 0-.367 3.113q.001 1.471.394 2.965a9.7 9.7 0 0 0 1.153 2.719 6.8 6.8 0 0 0 1.91 2.035c.765.535 1.656.809 2.668.809q1.717.047 3.09-.493a50 50 0 0 0 2.839-1.222z" clip-path="url(#q)" style="fill:#231916;fill-opacity:1;fill-rule:nonzero;stroke:none" transform="scale(1.33333)"/><path d="M324.855 134.465q0-1.176-.269-2.328a7.6 7.6 0 0 0-.809-2.082 4.27 4.27 0 0 0-1.418-1.493c-.589-.374-1.273-.566-2.058-.566-.852 0-1.578.192-2.18.566a4.4 4.4 0 0 0-1.473 1.493 7.7 7.7 0 0 0-.855 2.058c-.195.75-.328 1.52-.395 2.301h9.411zm3.774 11.223q-.831.537-1.715 1.003-.88.464-1.961.809-1.172.341-2.449.488-1.274.146-2.57.051a9.9 9.9 0 0 1-2.5-.516 6.2 6.2 0 0 1-2.133-1.25c-1.176-1.011-2.098-2.316-2.766-3.902q-1.008-2.385-1.008-5.133 0-2.113.469-4.176c.309-1.374.809-2.601 1.492-3.683a8.2 8.2 0 0 1 2.672-2.629q1.642-1.008 3.992-1.008 2.256 0 3.797.738a6.6 6.6 0 0 1 2.551 2.141q1 1.406 1.445 3.399.44 1.991.489 4.503h-13.133q-.147 2.11.269 3.821.416 1.716 1.301 2.918a6.2 6.2 0 0 0 2.129 1.859c.836.441 1.758.649 2.77.613q1.863-.098 3.257-.589a23 23 0 0 0 2.77-1.18z" clip-path="url(#r)" style="fill:#231916;fill-opacity:1;fill-rule:nonzero;stroke:none" transform="scale(1.33333)"/><path d="M36.355 10.211c2.493 0 4.524 2.066 4.524 4.609 0 2.532-2.031 4.578-4.524 4.578-2.5 0-4.527-2.046-4.527-4.578 0-2.543 2.027-4.609 4.527-4.609m13.04-7.395c-4.122.02-8.051.368-11.524.981-10.195 1.805-12.055 5.578-12.055 12.539v9.191h24.118v3.063H16.766c-7.008 0-13.145 4.207-15.067 12.226C-.52 50-.609 55.73 1.699 65.324c1.715 7.137 5.809 12.227 12.821 12.227h8.289V66.535c0-7.965 6.89-14.984 15.062-14.984h24.094c6.699 0 12.055-5.52 12.055-12.254V16.336c0-6.539-5.512-11.441-12.055-12.539-4.145-.688-8.442-.996-12.57-.981" clip-path="url(#s)" style="fill:#d8003a;fill-opacity:1;fill-rule:nonzero;stroke:none" transform="scale(1.33333)"/></svg>