<?xml version="1.0" encoding="UTF-8"?>
<svg id="_レイヤー_2" data-name="レイヤー 2" xmlns="http://www.w3.org/2000/svg" xmlns:xlink="http://www.w3.org/1999/xlink" viewBox="0 0 426.29 329.19">
  <defs>
    <style>
      .cls-1 {
        clip-path: url(#clippath-6);
      }

      .cls-2 {
        clip-path: url(#clippath-7);
      }

      .cls-3 {
        clip-path: url(#clippath-15);
      }

      .cls-4 {
        clip-path: url(#clippath-4);
      }

      .cls-5 {
        clip-path: url(#clippath-9);
      }

      .cls-6 {
        clip-path: url(#clippath-10);
      }

      .cls-7 {
        fill: #fff;
      }

      .cls-8 {
        clip-path: url(#clippath-11);
      }

      .cls-9 {
        fill: none;
      }

      .cls-10 {
        fill: #a882f6;
      }

      .cls-11 {
        clip-path: url(#clippath-1);
      }

      .cls-12 {
        clip-path: url(#clippath-5);
      }

      .cls-13 {
        clip-path: url(#clippath-8);
      }

      .cls-14 {
        fill: #84c3df;
      }

      .cls-15 {
        fill: #f9621f;
      }

      .cls-16 {
        clip-path: url(#clippath-3);
      }

      .cls-17 {
        clip-path: url(#clippath-12);
      }

      .cls-18 {
        clip-path: url(#clippath-14);
      }

      .cls-19 {
        fill: #ffee5a;
      }

      .cls-20 {
        clip-path: url(#clippath-16);
      }

      .cls-21 {
        clip-path: url(#clippath-2);
      }

      .cls-22 {
        clip-path: url(#clippath-13);
      }

      .cls-23 {
        clip-path: url(#clippath);
      }
    </style>
    <clipPath id="clippath">
      <rect class="cls-9" x="244.03" y="3.43" width="29.62" height="47.78" transform="translate(21.39 -79.28) rotate(18.15)"/>
    </clipPath>
    <clipPath id="clippath-1">
      <rect class="cls-9" x="198.42" y="113.51" width="27.11" height="43.73" transform="translate(377.89 -53.66) rotate(98.71)"/>
    </clipPath>
    <clipPath id="clippath-2">
      <rect class="cls-9" x="228.18" y="216.32" width="39.13" height="63.11" transform="translate(459.94 -31.03) rotate(82.25)"/>
    </clipPath>
    <clipPath id="clippath-3">
      <rect class="cls-9" x="286.46" y="101.08" width="39.13" height="63.11" transform="translate(541.07 369.26) rotate(-158.24)"/>
    </clipPath>
    <clipPath id="clippath-4">
      <rect class="cls-9" x="175.32" y="28.09" width="19.24" height="31.04" transform="translate(277.7 -122.22) rotate(105.95)"/>
    </clipPath>
    <clipPath id="clippath-5">
      <rect class="cls-9" x="106.62" y="156.77" width="39.13" height="63.11" transform="translate(282.16 23.83) rotate(77.3)"/>
    </clipPath>
    <clipPath id="clippath-6">
      <rect class="cls-9" x="53.13" y="297.86" width="19.15" height="30.88" transform="translate(15.23 -2.67) rotate(2.77)"/>
    </clipPath>
    <clipPath id="clippath-7">
      <rect class="cls-9" x="280.17" y="35.08" width="19.15" height="30.88" transform="translate(2.78 -13.96) rotate(2.77)"/>
    </clipPath>
    <clipPath id="clippath-8">
      <rect class="cls-9" x="25.85" y="205.88" width="27.11" height="43.73" transform="translate(111.31 447.4) rotate(171.69)"/>
    </clipPath>
    <clipPath id="clippath-9">
      <rect class="cls-9" x="303.98" y="222.25" width="10.5" height="16.93" transform="translate(616.06 -3.18) rotate(105.95)"/>
    </clipPath>
    <clipPath id="clippath-10">
      <rect class="cls-9" x="378.12" y="151.68" width="10.29" height="16.59" transform="translate(-13.9 38.54) rotate(-5.65)"/>
    </clipPath>
    <clipPath id="clippath-11">
      <rect class="cls-9" x="190.12" y="173.94" width="16.93" height="27.31" transform="translate(442.12 311.39) rotate(163.58)"/>
    </clipPath>
    <clipPath id="clippath-12">
      <rect class="cls-9" x="100.93" y="80" width="17.8" height="28.72" transform="translate(207.18 -12.84) rotate(91.58)"/>
    </clipPath>
    <clipPath id="clippath-13">
      <rect class="cls-9" x="395.08" y="216.15" width="21.92" height="35.36" transform="translate(284.11 -218.59) rotate(44.98)"/>
    </clipPath>
    <clipPath id="clippath-14">
      <rect class="cls-9" x="337.4" y="277.68" width="17.53" height="28.28" transform="translate(554.76 -110.03) rotate(77.3)"/>
    </clipPath>
    <clipPath id="clippath-15">
      <rect class="cls-9" x="10.26" y="138.88" width="23.63" height="38.11" transform="translate(160.67 79.07) rotate(68.31)"/>
    </clipPath>
    <clipPath id="clippath-16">
      <rect class="cls-9" x="141.88" y="282.36" width="17.07" height="27.53" transform="translate(275.02 -11.76) rotate(48.96)"/>
    </clipPath>
  </defs>
  <g id="sp">
    <g id="top">
      <g id="l">
        <g class="cls-23">
          <rect class="cls-15" x="228.07" y="6.28" width="32.59" height="32.59" transform="translate(16.15 112.79) rotate(-26.85)"/>
        </g>
        <g class="cls-11">
          <rect class="cls-10" x="199.18" y="106.68" width="29.83" height="29.83" transform="translate(185.38 -122.93) rotate(53.71)"/>
        </g>
        <g class="cls-21">
          <rect class="cls-19" x="228.05" y="208.65" width="39.75" height="39.75" transform="translate(188.89 -103.45) rotate(37.25)"/>
        </g>
        <g class="cls-16">
          <rect class="cls-14" x="302.9" y="122.45" width="39.75" height="39.75" transform="translate(675.52 145.75) rotate(156.76)"/>
        </g>
        <g class="cls-4">
          <rect class="cls-14" x="179.07" y="25.16" width="19.55" height="19.55" transform="translate(127.7 -147.13) rotate(60.95)"/>
        </g>
        <g class="cls-12">
          <rect class="cls-15" x="104.83" y="149.15" width="39.75" height="39.75" transform="translate(109.62 -40.48) rotate(32.3)"/>
        </g>
        <g class="cls-1">
          <rect class="cls-19" x="43.68" y="301.76" width="19.45" height="19.45" transform="translate(-195.48 116.72) rotate(-42.23)"/>
        </g>
        <g class="cls-2">
          <rect class="cls-19" x="270.72" y="38.97" width="19.45" height="19.45" transform="translate(40.05 201.12) rotate(-42.23)"/>
        </g>
        <g class="cls-13">
          <rect class="cls-7" x="38.29" y="210.81" width="29.83" height="29.83" transform="translate(266 317.93) rotate(126.69)"/>
        </g>
        <g class="cls-5">
          <rect class="cls-14" x="306.03" y="220.65" width="10.66" height="10.66" transform="translate(357.76 -155.93) rotate(60.95)"/>
        </g>
        <g class="cls-6">
          <rect class="cls-10" x="372.34" y="154.84" width="11.32" height="11.32" transform="translate(14.23 351.06) rotate(-50.65)"/>
        </g>
        <g class="cls-8">
          <rect class="cls-7" x="197.63" y="175.82" width="18.63" height="18.63" transform="translate(468.51 91.95) rotate(118.58)"/>
        </g>
        <g class="cls-17">
          <rect class="cls-7" x="100.29" y="75.41" width="19.58" height="19.58" transform="translate(96.3 -53.32) rotate(46.58)"/>
        </g>
        <g class="cls-22">
          <rect class="cls-7" x="386.01" y="213.8" width="24.11" height="24.11"/>
        </g>
        <g class="cls-18">
          <rect class="cls-15" x="336.6" y="274.26" width="17.81" height="17.81" transform="translate(204.79 -140.81) rotate(32.3)"/>
        </g>
        <g class="cls-3">
          <rect class="cls-14" x="7.36" y="134.57" width="24" height="24" transform="translate(59.59 4.3) rotate(23.31)"/>
        </g>
        <g class="cls-20">
          <rect class="cls-10" x="135.27" y="280.11" width="18.78" height="18.78" transform="translate(20.35 -9.3) rotate(3.96)"/>
        </g>
      </g>
    </g>
  </g>
</svg>