<?xml version="1.0" encoding="UTF-8"?>
<svg id="_レイヤー_2" data-name="レイヤー 2" xmlns="http://www.w3.org/2000/svg" xmlns:xlink="http://www.w3.org/1999/xlink" viewBox="0 0 476.77 421.81">
  <defs>
    <style>
      .cls-1 {
        clip-path: url(#clippath-21);
      }

      .cls-2 {
        clip-path: url(#clippath-6);
      }

      .cls-3 {
        clip-path: url(#clippath-7);
      }

      .cls-4 {
        clip-path: url(#clippath-17);
      }

      .cls-5 {
        clip-path: url(#clippath-15);
      }

      .cls-6 {
        clip-path: url(#clippath-18);
      }

      .cls-7 {
        clip-path: url(#clippath-4);
      }

      .cls-8 {
        clip-path: url(#clippath-22);
      }

      .cls-9 {
        clip-path: url(#clippath-23);
      }

      .cls-10 {
        clip-path: url(#clippath-9);
      }

      .cls-11 {
        clip-path: url(#clippath-10);
      }

      .cls-12 {
        fill: #fff;
      }

      .cls-13 {
        clip-path: url(#clippath-11);
      }

      .cls-14 {
        fill: none;
      }

      .cls-15 {
        fill: #a882f6;
      }

      .cls-16 {
        clip-path: url(#clippath-1);
      }

      .cls-17 {
        clip-path: url(#clippath-5);
      }

      .cls-18 {
        clip-path: url(#clippath-20);
      }

      .cls-19 {
        clip-path: url(#clippath-8);
      }

      .cls-20 {
        fill: #84c3df;
      }

      .cls-21 {
        fill: #f9621f;
      }

      .cls-22 {
        clip-path: url(#clippath-3);
      }

      .cls-23 {
        clip-path: url(#clippath-12);
      }

      .cls-24 {
        clip-path: url(#clippath-14);
      }

      .cls-25 {
        clip-path: url(#clippath-19);
      }

      .cls-26 {
        fill: #ffee5a;
      }

      .cls-27 {
        clip-path: url(#clippath-16);
      }

      .cls-28 {
        clip-path: url(#clippath-2);
      }

      .cls-29 {
        clip-path: url(#clippath-13);
      }

      .cls-30 {
        clip-path: url(#clippath);
      }
    </style>
    <clipPath id="clippath">
      <rect class="cls-14" x="11.32" y="158.82" width="25.61" height="41.3" transform="translate(148.99 48.33) rotate(51.25)"/>
    </clipPath>
    <clipPath id="clippath-1">
      <rect class="cls-14" x="138.72" y="164.02" width="25.72" height="41.49" transform="translate(57.3 -34.84) rotate(16.13)"/>
    </clipPath>
    <clipPath id="clippath-2">
      <rect class="cls-14" x="215.62" y="230.46" width="37.12" height="59.87" transform="translate(177.13 -85.14) rotate(32.59)"/>
    </clipPath>
    <clipPath id="clippath-3">
      <rect class="cls-14" x="93.17" y="234.71" width="37.12" height="59.87" transform="translate(-158.54 362) rotate(-86.92)"/>
    </clipPath>
    <clipPath id="clippath-4">
      <rect class="cls-14" x="74.21" y="110.19" width="18.26" height="29.45" transform="translate(20.29 -11.37) rotate(8.88)"/>
    </clipPath>
    <clipPath id="clippath-5">
      <rect class="cls-14" x="207.13" y="116.71" width="22.53" height="36.33" transform="translate(28.55 -37.88) rotate(10.6)"/>
    </clipPath>
    <clipPath id="clippath-6">
      <rect class="cls-14" x="355.18" y="112.51" width="18.16" height="29.3" transform="translate(618.95 -162.66) rotate(112.07)"/>
    </clipPath>
    <clipPath id="clippath-7">
      <rect class="cls-14" x="38.44" y="203.26" width="18.16" height="29.3" transform="translate(267.32 255.72) rotate(112.07)"/>
    </clipPath>
    <clipPath id="clippath-8">
      <rect class="cls-14" x="287.02" y="52.25" width="25.72" height="41.49" transform="translate(74.78 284.15) rotate(-56.85)"/>
    </clipPath>
    <clipPath id="clippath-9">
      <rect class="cls-14" x="189.93" y="298.47" width="9.96" height="16.06" transform="translate(49.67 -26.42) rotate(8.88)"/>
    </clipPath>
    <clipPath id="clippath-10">
      <rect class="cls-14" x="99.61" y="334.17" width="9.76" height="15.74" transform="translate(452.25 425.58) rotate(120.49)"/>
    </clipPath>
    <clipPath id="clippath-11">
      <rect class="cls-14" x="65.85" y="23.42" width="25.72" height="41.49" transform="translate(118.88 124.98) rotate(-145.72)"/>
    </clipPath>
    <clipPath id="clippath-12">
      <rect class="cls-14" x="22.63" y="239.55" width="9.96" height="16.06" transform="translate(38.57 -1.29) rotate(8.88)"/>
    </clipPath>
    <clipPath id="clippath-13">
      <rect class="cls-14" x="233.79" y="-.73" width="18.16" height="29.3" transform="translate(347.01 -205.93) rotate(112.07)"/>
    </clipPath>
    <clipPath id="clippath-14">
      <rect class="cls-14" x="435.91" y="89.79" width="9.96" height="16.06" transform="translate(20.4 -66.92) rotate(8.88)"/>
    </clipPath>
    <clipPath id="clippath-15">
      <rect class="cls-14" x="51.61" y="388.64" width="13.89" height="22.4" transform="translate(405.88 193.29) rotate(67.59)"/>
    </clipPath>
    <clipPath id="clippath-16">
      <rect class="cls-14" x="462.63" y="23.33" width="9.76" height="15.74" transform="translate(731.63 -355.82) rotate(120.49)"/>
    </clipPath>
    <clipPath id="clippath-17">
      <rect class="cls-14" x="402.97" y="-.16" width="13.89" height="22.4" transform="translate(263.86 -372.13) rotate(67.59)"/>
    </clipPath>
    <clipPath id="clippath-18">
      <rect class="cls-14" x="295.32" y="231.36" width="16.07" height="25.91" transform="translate(665.31 388.2) rotate(162.83)"/>
    </clipPath>
    <clipPath id="clippath-19">
      <rect class="cls-14" x="402.97" y="191.36" width="13.89" height="22.4" transform="translate(440.92 -253.62) rotate(67.59)"/>
    </clipPath>
    <clipPath id="clippath-20">
      <rect class="cls-14" x="413.57" y="249.25" width="9.96" height="16.06" transform="translate(44.76 -61.55) rotate(8.88)"/>
    </clipPath>
    <clipPath id="clippath-21">
      <rect class="cls-14" x="233.4" y="394.08" width="16.07" height="25.91" transform="translate(367.98 -48.98) rotate(46.18)"/>
    </clipPath>
    <clipPath id="clippath-22">
      <rect class="cls-14" x="306.53" y="181.47" width="11.08" height="17.87" transform="translate(496.99 -124.94) rotate(89)"/>
    </clipPath>
    <clipPath id="clippath-23">
      <rect class="cls-14" x="294.59" y="259.45" width="9.76" height="15.74" transform="translate(681.78 144.92) rotate(120.49)"/>
    </clipPath>
  </defs>
  <g id="sp">
    <g id="top">
      <g id="r">
        <g class="cls-30">
          <rect class="cls-21" x="1.79" y="155.12" width="28.17" height="28.17" transform="translate(185.8 171.84) rotate(96.25)"/>
        </g>
        <g class="cls-16">
          <rect class="cls-15" x="124.72" y="166.94" width="28.3" height="28.3" transform="translate(230.41 -27.95) rotate(61.13)"/>
        </g>
        <g class="cls-28">
          <rect class="cls-26" x="198.59" y="233.99" width="37.71" height="37.71" transform="translate(417.66 -13.86) rotate(77.59)"/>
        </g>
        <g class="cls-22">
          <rect class="cls-20" x="94.55" y="264.08" width="37.71" height="37.71" transform="translate(-160 148.18) rotate(-41.92)"/>
        </g>
        <g class="cls-7">
          <rect class="cls-20" x="65.04" y="115.55" width="18.55" height="18.55" transform="translate(131.35 -8.78) rotate(53.88)"/>
        </g>
        <g class="cls-17">
          <rect class="cls-21" x="195.82" y="122.99" width="22.89" height="22.89" transform="translate(201.1 -112.53) rotate(55.6)"/>
        </g>
        <g class="cls-2">
          <rect class="cls-26" x="357.18" y="109.2" width="18.45" height="18.45" transform="translate(749.99 84.71) rotate(157.07)"/>
        </g>
        <g class="cls-3">
          <rect class="cls-26" x="40.43" y="199.95" width="18.45" height="18.45" transform="translate(176.9 382.47) rotate(157.07)"/>
        </g>
        <g class="cls-19">
          <rect class="cls-12" x="278.5" y="69.92" width="28.3" height="28.3" transform="translate(-11.03 61.88) rotate(-11.85)"/>
        </g>
        <g class="cls-10">
          <rect class="cls-20" x="184.92" y="301.39" width="10.12" height="10.12" transform="translate(325.56 -27.65) rotate(53.88)"/>
        </g>
        <g class="cls-11">
          <rect class="cls-15" x="101.67" y="332.35" width="10.74" height="10.74" transform="translate(295.26 637.86) rotate(165.49)"/>
        </g>
        <g class="cls-13">
          <rect class="cls-12" x="75.5" y="37.46" width="28.3" height="28.3" transform="translate(55.61 149.29) rotate(-100.72)"/>
        </g>
        <g class="cls-23">
          <rect class="cls-20" x="17.62" y="242.48" width="10.12" height="10.12" transform="translate(209.28 83.31) rotate(53.88)"/>
        </g>
        <g class="cls-29">
          <rect class="cls-26" x="235.78" y="-4.03" width="18.45" height="18.45" transform="translate(472.67 -85.5) rotate(157.07)"/>
        </g>
        <g class="cls-24">
          <rect class="cls-20" x="430.9" y="92.72" width="10.12" height="10.12" transform="translate(257.98 -312.04) rotate(53.88)"/>
        </g>
        <g class="cls-5">
          <rect class="cls-21" x="47.99" y="386.88" width="14.11" height="14.11" transform="translate(439.9 494.45) rotate(112.59)"/>
        </g>
        <g class="cls-27">
          <rect class="cls-15" x="464.69" y="21.51" width="10.74" height="10.74" transform="translate(931.87 -64.85) rotate(165.49)"/>
        </g>
        <g class="cls-4">
          <rect class="cls-21" x="399.35" y="-1.92" width="14.11" height="14.11" transform="translate(567.27 -368.11) rotate(112.59)"/>
        </g>
        <g class="cls-6">
          <rect class="cls-12" x="302.41" y="233.04" width="17.67" height="17.67" transform="translate(473.57 601.09) rotate(-152.17)"/>
        </g>
        <g class="cls-25">
          <rect class="cls-21" x="399.35" y="189.6" width="14.11" height="14.11" transform="translate(744.1 -103.01) rotate(112.59)"/>
        </g>
        <g class="cls-18">
          <rect class="cls-20" x="408.57" y="252.17" width="10.12" height="10.12" transform="translate(377.63 -228.52) rotate(53.88)"/>
        </g>
        <g class="cls-1">
          <rect class="cls-12" x="226.87" y="392.24" width="17.67" height="17.67" transform="translate(641.57 173.7) rotate(91.18)"/>
        </g>
        <g class="cls-8">
          <rect class="cls-26" x="305.55" y="179.37" width="11.26" height="11.26" transform="translate(660.42 89.66) rotate(134)"/>
        </g>
        <g class="cls-9">
          <rect class="cls-15" x="296.65" y="257.63" width="10.74" height="10.74" transform="translate(660.29 441.95) rotate(165.49)"/>
        </g>
      </g>
    </g>
  </g>
</svg>