<?xml version="1.0" encoding="UTF-8"?>
<svg id="_レイヤー_2" data-name="レイヤー_2" xmlns="http://www.w3.org/2000/svg" viewBox="0 0 477.34 177.11">
  <defs>
    <style>
      .cls-1 {
        fill: #231815;
      }
    </style>
  </defs>
  <g id="pc">
    <g id="main">
      <g id="top">
        <g id="_レイヤー_94" data-name="レイヤー_94">
          <path class="cls-1" d="M275.07,153.38c1.92-2.78,4.75-4.35,7.94-4.35,6.47,0,9.51,3.54,9.51,9.31v17.55h-7.18v-15.12c0-3.44-.51-6.07-4.4-6.07-3.39,0-4.81,2.38-4.81,6.58v14.62h-7.18v-15.43c0-3.39-.51-5.77-4.35-5.77-1.67,0-4.86,1.16-4.86,5.97v15.23h-7.18v-26.15h6.78v3.54h.1c2.02-2.88,4.75-4.25,7.99-4.25,3.9,0,6.42,1.62,7.64,4.35Z"/>
          <path class="cls-1" d="M305.36,139.77v5.92h-7.18v-5.92h7.18ZM305.36,149.73v26.15h-7.18v-26.15h7.18Z"/>
          <path class="cls-1" d="M335.35,159.6v16.29h-7.18v-14.82c0-4.3-1.26-6.37-4.6-6.37-4.45,0-5.56,2.93-5.56,7.59v13.61h-7.18v-26.15h6.83v3.64h.15c1.72-2.78,4.65-4.35,8.04-4.35,6.63,0,9.51,3.24,9.51,10.57Z"/>
          <path class="cls-1" d="M348.02,139.77v5.92h-7.18v-5.92h7.18ZM348.02,149.73v26.15h-7.18v-26.15h7.18Z"/>
          <path class="cls-1" d="M374.71,135.21c-2.91,0-4.79.06-6.9.34v-6.27c2,.29,4.1.4,7.3.4h15.05c-.06-2.34-.11-3.31-.4-5.13h6.96c-.29,1.77-.34,2.96-.34,5.13h15.56c3.53,0,5.7-.11,7.47-.4v6.27c-1.88-.23-4.28-.34-7.07-.34h-15.96v3.19h11.91c3.48,0,4.56-.06,6.33-.23-.17,1.71-.23,3.59-.23,5.76v10.55q0,3.19.23,5.81c-1.65-.23-3.25-.29-6.38-.29h-6.84c5.07,4.79,11.12,7.75,19.78,9.75-1.48,2.28-2,3.31-3.25,6.04-4.62-1.54-8.04-3.08-11.69-5.19-4.22-2.51-6.9-4.67-9.98-8.21.06,1.88.11,2.96.11,3.93v4.1c0,2.91.06,4.56.4,6.5h-7.01c.29-2.22.4-3.88.4-6.5v-4.1c0-.68.06-2.79.11-3.88-2.91,3.59-6.38,6.44-10.89,9.01-2.74,1.6-6.33,3.19-9.75,4.39-1.25-2.85-1.77-3.82-3.19-5.76,4.28-1.2,7.24-2.34,10.72-4.22,3.48-1.88,6.21-3.88,8.15-5.87h-6.16c-3.53,0-4.67.06-6.44.29q0-.57.17-1.65,0-.23.06-4.16v-10.49c0-2.96-.06-3.88-.23-5.87,1.54.23,2.91.29,6.21.29h11.23v-3.19h-15.45ZM378.98,143.3v3.48h11.17v-3.48h-11.17ZM378.98,151.51v3.59h11.17v-3.59h-11.17ZM396.37,146.78h11.97v-3.48h-11.97v3.48ZM396.37,155.1h11.97v-3.59h-11.97v3.59Z"/>
          <path class="cls-1" d="M427.06,139.42c3.99,2.45,6.21,4.16,9.24,7.18l-4.05,4.67c-3.14-3.42-4.96-4.96-9.12-7.58l3.93-4.28ZM436.46,159.32c-1.6,5.24-2.68,8.09-4.9,13.11l-2.22,4.67-5.36-4.5c.34-.34.68-.8,1.08-1.54,2.22-3.59,4.39-9.01,6.33-15.68l5.07,3.93ZM429.79,125.06c3.53,2.45,5.87,4.45,8.72,7.41l-4.39,4.56c-3.19-3.65-5.36-5.59-8.61-7.81l4.28-4.16ZM467.59,129.62c4.33,0,6.04-.06,8.21-.34v6.1c-1.54-.17-3.36-.23-7.47-.23h-21.38c-.97,1.54-1.65,2.68-2.62,4.05h22c2.74,0,4.45-.06,5.99-.17-.11.8-.17,1.48-.29,3.19,0,.4-.11,3.19-.29,8.38,2.79,0,3.53-.06,5.07-.29v6.04c-1.77-.23-3.08-.29-4.79-.29h-.57c-.23,2.96-.34,4.79-.57,7.01,2.28,0,3.08-.06,4.28-.29v5.99c-1.37-.17-2.39-.23-4.33-.23h-.63c-1.2,7.07-2.51,8.38-8.49,8.38-.91,0-1.6-.06-5.13-.29-.06-2.45-.34-3.76-1.2-5.87,2.17.4,4.1.57,5.76.57,2.11,0,2.39-.23,3.02-2.79h-19.27c-.4,1.82-.51,2.39-1.03,4.5l-6.38-.63c1.6-4.62,2.79-9.86,3.76-16.36h-.85c-1.82,0-2.85.06-4.45.29v-6.04c1.6.23,2.85.29,5.3.29h.63c.46-4.28.63-6.61.63-8.89-1.14,1.37-1.71,2-3.48,3.71-1.14-1.82-2.45-3.19-4.28-4.62,3.65-3.25,5.36-5.3,7.3-8.67,1.65-2.85,2.85-5.87,3.19-8.09l6.56,1.14q-1.25,2.96-1.94,4.45h17.73ZM452.48,163.08c.4-2.62.51-3.36.91-7.01h-6.38c-.34,2.45-.4,3.02-1.14,7.01h6.61ZM453.91,150.6q.11-1.82.34-6.16h-6.16c-.17,2.85-.23,3.53-.51,6.16h6.33ZM465.08,163.08c.29-2.57.46-4.67.63-7.01h-6.84c-.23,2.17-.51,4.5-.85,7.01h7.07ZM465.99,150.6q.11-3.48.17-6.16h-6.38q-.34,4.56-.46,6.16h6.67Z"/>
          <g>
            <path class="cls-1" d="M49.03,2.58c25.35,0,37.35,15.48,37.35,34.76s-12.3,34.76-37.19,34.76h-25.35v38.86H0V2.58h49.03ZM42.81,53.59c13.66,0,20.49-4.71,20.49-16.24s-6.38-16.24-20.34-16.24h-19.13v32.49h18.98Z"/>
            <path class="cls-1" d="M117.91,36.39l22.83,69.08h.39l22.05-69.08h28.68l-42.15,113.57c-5.85,15.81-15.61,22.83-34.34,22.83-6.63,0-11.51-.39-17.37-.98v-22.83c5.85.78,10.73.98,14.63.98,7.81,0,12.29-5.46,12.29-12.68,0-1.76-.2-3.51-1.17-6.24l-35.51-94.64h29.66Z"/>
            <path class="cls-1" d="M300.41,39.02h-23.08c-1.67-10.63-11.84-18.98-23.68-18.98-19.43,0-29.45,15.33-29.45,37.19,0,20.34,9.56,36.28,29.45,36.28,13.66,0,22.62-8.8,24.59-24.29h23.08c-2.43,27.33-21.1,44.33-47.67,44.33-33.09,0-53.29-24.59-53.29-56.32S220.1,0,253.65,0c24.29,0,44.02,14.57,46.76,39.02Z"/>
            <path class="cls-1" d="M391.42,71.81c0,25.35-16.55,41.29-40.69,41.29s-40.53-16.55-40.53-41.29,15.94-41.44,40.53-41.44,40.69,16.55,40.69,41.44ZM350.73,96.85c12.75,0,19.13-9.56,19.13-25.05,0-12.75-4.4-25.2-19.28-25.2-11.99,0-18.82,9.11-18.82,25.2s6.68,25.05,18.98,25.05Z"/>
            <path class="cls-1" d="M477.34,62.09v48.88h-21.56v-44.48c0-12.9-3.8-19.13-13.81-19.13-13.36,0-16.7,8.8-16.7,22.77v40.84h-21.56V32.49h20.49v10.93h.46c5.16-8.35,13.97-13.06,24.14-13.06,19.89,0,28.54,9.72,28.54,31.73Z"/>
          </g>
        </g>
      </g>
    </g>
  </g>
</svg>