<?xml version="1.0" encoding="UTF-8"?>
<svg id="_レイヤー_2" data-name="レイヤー 2" xmlns="http://www.w3.org/2000/svg" xmlns:xlink="http://www.w3.org/1999/xlink" viewBox="0 0 476.77 421.81">
  <defs>
    <style>
      .cls-1 {
        clip-path: url(#clippath-21);
      }

      .cls-2 {
        clip-path: url(#clippath-6);
      }

      .cls-3 {
        clip-path: url(#clippath-7);
      }

      .cls-4 {
        clip-path: url(#clippath-17);
      }

      .cls-5 {
        clip-path: url(#clippath-15);
      }

      .cls-6 {
        clip-path: url(#clippath-18);
      }

      .cls-7 {
        clip-path: url(#clippath-4);
      }

      .cls-8 {
        clip-path: url(#clippath-22);
      }

      .cls-9 {
        clip-path: url(#clippath-23);
      }

      .cls-10 {
        clip-path: url(#clippath-9);
      }

      .cls-11 {
        clip-path: url(#clippath-10);
      }

      .cls-12 {
        fill: #fff;
      }

      .cls-13 {
        clip-path: url(#clippath-11);
      }

      .cls-14 {
        fill: none;
      }

      .cls-15 {
        fill: #a882f6;
      }

      .cls-16 {
        clip-path: url(#clippath-1);
      }

      .cls-17 {
        clip-path: url(#clippath-5);
      }

      .cls-18 {
        clip-path: url(#clippath-20);
      }

      .cls-19 {
        clip-path: url(#clippath-8);
      }

      .cls-20 {
        fill: #84c3df;
      }

      .cls-21 {
        fill: #f9621f;
      }

      .cls-22 {
        clip-path: url(#clippath-3);
      }

      .cls-23 {
        clip-path: url(#clippath-12);
      }

      .cls-24 {
        clip-path: url(#clippath-14);
      }

      .cls-25 {
        clip-path: url(#clippath-19);
      }

      .cls-26 {
        fill: #ffee5a;
      }

      .cls-27 {
        clip-path: url(#clippath-16);
      }

      .cls-28 {
        clip-path: url(#clippath-2);
      }

      .cls-29 {
        clip-path: url(#clippath-13);
      }

      .cls-30 {
        clip-path: url(#clippath);
      }
    </style>
    <clipPath id="clippath">
      <rect class="cls-14" x="439.85" y="158.82" width="25.61" height="41.3" transform="translate(875.95 -61.2) rotate(128.75)"/>
    </clipPath>
    <clipPath id="clippath-1">
      <rect class="cls-14" x="312.33" y="164.02" width="25.72" height="41.49" transform="translate(688.92 271.92) rotate(163.87)"/>
    </clipPath>
    <clipPath id="clippath-2">
      <rect class="cls-14" x="224.03" y="230.46" width="37.12" height="59.87" transform="translate(587.23 349.12) rotate(147.41)"/>
    </clipPath>
    <clipPath id="clippath-3">
      <rect class="cls-14" x="346.48" y="234.71" width="37.12" height="59.87" transform="translate(120.38 643.38) rotate(-93.08)"/>
    </clipPath>
    <clipPath id="clippath-4">
      <rect class="cls-14" x="384.3" y="110.19" width="18.26" height="29.45" transform="translate(801.43 187.57) rotate(171.12)"/>
    </clipPath>
    <clipPath id="clippath-5">
      <rect class="cls-14" x="247.12" y="116.71" width="22.53" height="36.33" transform="translate(537.17 219.91) rotate(169.4)"/>
    </clipPath>
    <clipPath id="clippath-6">
      <rect class="cls-14" x="103.42" y="112.51" width="18.16" height="29.3" transform="translate(188.08 -24.88) rotate(67.93)"/>
    </clipPath>
    <clipPath id="clippath-7">
      <rect class="cls-14" x="420.17" y="203.26" width="18.16" height="29.3" transform="translate(469.94 -261.77) rotate(67.93)"/>
    </clipPath>
    <clipPath id="clippath-8">
      <rect class="cls-14" x="164.03" y="52.25" width="25.72" height="41.49" transform="translate(212.51 261.01) rotate(-123.15)"/>
    </clipPath>
    <clipPath id="clippath-9">
      <rect class="cls-14" x="276.89" y="298.47" width="9.96" height="16.06" transform="translate(607.68 565.79) rotate(171.12)"/>
    </clipPath>
    <clipPath id="clippath-10">
      <rect class="cls-14" x="367.4" y="334.17" width="9.76" height="15.74" transform="translate(478.11 -152.31) rotate(59.51)"/>
    </clipPath>
    <clipPath id="clippath-11">
      <rect class="cls-14" x="385.2" y="23.42" width="25.72" height="41.49" transform="translate(44.27 231.87) rotate(-34.28)"/>
    </clipPath>
    <clipPath id="clippath-12">
      <rect class="cls-14" x="444.18" y="239.55" width="9.96" height="16.06" transform="translate(931.17 422.83) rotate(171.12)"/>
    </clipPath>
    <clipPath id="clippath-13">
      <rect class="cls-14" x="224.82" y="-.73" width="18.16" height="29.3" transform="translate(158.93 -208.08) rotate(67.93)"/>
    </clipPath>
    <clipPath id="clippath-14">
      <rect class="cls-14" x="30.9" y="89.79" width="9.96" height="16.06" transform="translate(86.44 188.93) rotate(171.12)"/>
    </clipPath>
    <clipPath id="clippath-15">
      <rect class="cls-14" x="411.28" y="388.64" width="13.89" height="22.4" transform="translate(947.29 165.62) rotate(112.41)"/>
    </clipPath>
    <clipPath id="clippath-16">
      <rect class="cls-14" x="4.38" y="23.33" width="9.76" height="15.74" transform="translate(31.45 7.39) rotate(59.51)"/>
    </clipPath>
    <clipPath id="clippath-17">
      <rect class="cls-14" x="59.92" y="-.16" width="13.89" height="22.4" transform="translate(102.55 -46.56) rotate(112.41)"/>
    </clipPath>
    <clipPath id="clippath-18">
      <rect class="cls-14" x="165.39" y="231.36" width="16.07" height="25.91" transform="translate(79.85 -40.31) rotate(17.17)"/>
    </clipPath>
    <clipPath id="clippath-19">
      <rect class="cls-14" x="59.92" y="191.36" width="13.89" height="22.4" transform="translate(279.61 217.96) rotate(112.41)"/>
    </clipPath>
    <clipPath id="clippath-20">
      <rect class="cls-14" x="53.24" y="249.25" width="9.96" height="16.06" transform="translate(155.48 502.48) rotate(171.12)"/>
    </clipPath>
    <clipPath id="clippath-21">
      <rect class="cls-14" x="227.31" y="394.08" width="16.07" height="25.91" transform="translate(691.98 519.04) rotate(133.82)"/>
    </clipPath>
    <clipPath id="clippath-22">
      <rect class="cls-14" x="159.17" y="181.47" width="11.08" height="17.87" transform="translate(357.96 29.05) rotate(91)"/>
    </clipPath>
    <clipPath id="clippath-23">
      <rect class="cls-14" x="172.42" y="259.45" width="9.76" height="15.74" transform="translate(317.68 -21.11) rotate(59.51)"/>
    </clipPath>
  </defs>
  <g id="pc">
    <g id="main">
      <g id="top">
        <g id="_レイヤー_101" data-name="レイヤー 101">
          <g class="cls-30">
            <rect class="cls-21" x="446.81" y="155.12" width="28.17" height="28.17" transform="translate(578.93 -307.37) rotate(83.75)"/>
          </g>
          <g class="cls-16">
            <rect class="cls-15" x="323.75" y="166.94" width="28.3" height="28.3" transform="translate(659.63 -27.38) rotate(118.87)"/>
          </g>
          <g class="cls-28">
            <rect class="cls-26" x="240.47" y="233.99" width="37.71" height="37.71" transform="translate(561.99 53.91) rotate(102.41)"/>
          </g>
          <g class="cls-22">
            <rect class="cls-20" x="344.51" y="264.08" width="37.71" height="37.71" transform="translate(444.71 736.22) rotate(-138.08)"/>
          </g>
          <g class="cls-7">
            <rect class="cls-20" x="393.19" y="115.55" width="18.55" height="18.55" transform="translate(740.51 -126.72) rotate(126.12)"/>
          </g>
          <g class="cls-17">
            <rect class="cls-21" x="258.07" y="122.99" width="22.89" height="22.89" transform="translate(532.7 -12.01) rotate(124.4)"/>
          </g>
          <g class="cls-2">
            <rect class="cls-26" x="101.14" y="109.2" width="18.45" height="18.45" transform="translate(54.87 -33.65) rotate(22.93)"/>
          </g>
          <g class="cls-3">
            <rect class="cls-26" x="417.89" y="199.95" width="18.45" height="18.45" transform="translate(115.28 -149.9) rotate(22.93)"/>
          </g>
          <g class="cls-19">
            <rect class="cls-12" x="169.97" y="69.92" width="28.3" height="28.3" transform="translate(347.06 204.16) rotate(-168.15)"/>
          </g>
          <g class="cls-10">
            <rect class="cls-20" x="281.73" y="301.39" width="10.12" height="10.12" transform="translate(703.39 255.4) rotate(126.12)"/>
          </g>
          <g class="cls-11">
            <rect class="cls-15" x="364.37" y="332.35" width="10.74" height="10.74" transform="translate(96.38 -81.85) rotate(14.51)"/>
          </g>
          <g class="cls-13">
            <rect class="cls-12" x="372.98" y="37.46" width="28.3" height="28.3" transform="translate(264.4 422.38) rotate(-79.28)"/>
          </g>
          <g class="cls-23">
            <rect class="cls-20" x="449.03" y="242.48" width="10.12" height="10.12" transform="translate(921.7 26.61) rotate(126.12)"/>
          </g>
          <g class="cls-29">
            <rect class="cls-26" x="222.54" y="-4.03" width="18.45" height="18.45" transform="translate(20.34 -89.9) rotate(22.93)"/>
          </g>
          <g class="cls-24">
            <rect class="cls-20" x="35.75" y="92.72" width="10.12" height="10.12" transform="translate(143.85 122.44) rotate(126.12)"/>
          </g>
          <g class="cls-5">
            <rect class="cls-21" x="414.67" y="386.88" width="14.11" height="14.11" transform="translate(623.42 -146.77) rotate(67.41)"/>
          </g>
          <g class="cls-27">
            <rect class="cls-15" x="1.34" y="21.51" width="10.74" height="10.74" transform="translate(6.95 -.82) rotate(14.51)"/>
          </g>
          <g class="cls-4">
            <rect class="cls-21" x="63.31" y="-1.92" width="14.11" height="14.11" transform="translate(48.08 -61.81) rotate(67.41)"/>
          </g>
          <g class="cls-6">
            <rect class="cls-12" x="156.69" y="233.04" width="17.67" height="17.67" transform="translate(-93.78 105.25) rotate(-27.83)"/>
          </g>
          <g class="cls-25">
            <rect class="cls-21" x="63.31" y="189.6" width="14.11" height="14.11" transform="translate(224.9 56.14) rotate(67.41)"/>
          </g>
          <g class="cls-18">
            <rect class="cls-20" x="58.09" y="252.17" width="10.12" height="10.12" transform="translate(308.16 357.84) rotate(126.12)"/>
          </g>
          <g class="cls-1">
            <rect class="cls-12" x="232.22" y="392.24" width="17.67" height="17.67" transform="translate(637.07 151.79) rotate(88.82)"/>
          </g>
          <g class="cls-8">
            <rect class="cls-26" x="159.96" y="179.37" width="11.26" height="11.26" transform="translate(183.64 -62.63) rotate(46)"/>
          </g>
          <g class="cls-9">
            <rect class="cls-15" x="169.38" y="257.63" width="10.74" height="10.74" transform="translate(71.45 -35.39) rotate(14.51)"/>
          </g>
        </g>
      </g>
    </g>
  </g>
</svg>