<?xml version="1.0" encoding="UTF-8"?>
<svg id="_レイヤー_2" data-name="レイヤー 2" xmlns="http://www.w3.org/2000/svg" xmlns:xlink="http://www.w3.org/1999/xlink" viewBox="0 0 363.7 399.46">
  <defs>
    <style>
      .cls-1 {
        clip-path: url(#clippath-6);
      }

      .cls-2 {
        clip-path: url(#clippath-7);
      }

      .cls-3 {
        clip-path: url(#clippath-17);
      }

      .cls-4 {
        clip-path: url(#clippath-15);
      }

      .cls-5 {
        clip-path: url(#clippath-4);
      }

      .cls-6 {
        clip-path: url(#clippath-9);
      }

      .cls-7 {
        clip-path: url(#clippath-10);
      }

      .cls-8 {
        fill: #fff;
      }

      .cls-9 {
        clip-path: url(#clippath-11);
      }

      .cls-10 {
        fill: none;
      }

      .cls-11 {
        fill: #a882f6;
      }

      .cls-12 {
        clip-path: url(#clippath-1);
      }

      .cls-13 {
        clip-path: url(#clippath-5);
      }

      .cls-14 {
        clip-path: url(#clippath-8);
      }

      .cls-15 {
        fill: #84c3df;
      }

      .cls-16 {
        fill: #f9621f;
      }

      .cls-17 {
        clip-path: url(#clippath-3);
      }

      .cls-18 {
        clip-path: url(#clippath-12);
      }

      .cls-19 {
        clip-path: url(#clippath-14);
      }

      .cls-20 {
        fill: #ffee5a;
      }

      .cls-21 {
        clip-path: url(#clippath-16);
      }

      .cls-22 {
        clip-path: url(#clippath-2);
      }

      .cls-23 {
        clip-path: url(#clippath-13);
      }

      .cls-24 {
        clip-path: url(#clippath);
      }
    </style>
    <clipPath id="clippath">
      <rect class="cls-10" x="325.79" y="154.96" width="28.11" height="45.33" transform="translate(485.61 -177.05) rotate(84.75)"/>
    </clipPath>
    <clipPath id="clippath-1">
      <rect class="cls-10" x="215.23" y="156.8" width="25.72" height="41.49" transform="translate(493.76 291.43) rotate(165.3)"/>
    </clipPath>
    <clipPath id="clippath-2">
      <rect class="cls-10" x="125.06" y="221.15" width="37.12" height="59.87" transform="translate(396.43 391.65) rotate(148.84)"/>
    </clipPath>
    <clipPath id="clippath-3">
      <rect class="cls-10" x="247.36" y="228.46" width="37.12" height="59.87" transform="translate(15.27 531.64) rotate(-91.65)"/>
    </clipPath>
    <clipPath id="clippath-4">
      <rect class="cls-10" x="288.67" y="104.7" width="18.26" height="29.45" transform="translate(608.58 199.22) rotate(172.55)"/>
    </clipPath>
    <clipPath id="clippath-5">
      <rect class="cls-10" x="131.1" y="92.87" width="37.12" height="59.87" transform="translate(342.94 133.84) rotate(143.9)"/>
    </clipPath>
    <clipPath id="clippath-6">
      <rect class="cls-10" x="7.83" y="99.98" width="18.16" height="29.3" transform="translate(118.23 58.42) rotate(69.37)"/>
    </clipPath>
    <clipPath id="clippath-7">
      <rect class="cls-10" x="322.2" y="198.63" width="18.16" height="29.3" transform="translate(414.15 -171.91) rotate(69.37)"/>
    </clipPath>
    <clipPath id="clippath-8">
      <rect class="cls-10" x="69.76" y="41.35" width="25.72" height="41.49" transform="translate(73.24 165.03) rotate(-121.72)"/>
    </clipPath>
    <clipPath id="clippath-9">
      <rect class="cls-10" x="176.75" y="290.13" width="9.96" height="16.06" transform="translate(400.59 570.23) rotate(172.55)"/>
    </clipPath>
    <clipPath id="clippath-10">
      <rect class="cls-10" x="266.35" y="328.08" width="9.76" height="15.74" transform="translate(433.15 -64.31) rotate(60.94)"/>
    </clipPath>
    <clipPath id="clippath-11">
      <rect class="cls-10" x="169.54" y="172.62" width="16.07" height="25.91" transform="translate(148.81 440.81) rotate(-129.83)"/>
    </clipPath>
    <clipPath id="clippath-12">
      <rect class="cls-10" x="216.86" y="59.53" width="16.89" height="27.24" transform="translate(461.66 57.28) rotate(158.17)"/>
    </clipPath>
    <clipPath id="clippath-13">
      <rect class="cls-10" x="205.11" y="366.85" width="20.8" height="33.54" transform="translate(651.5 324.28) rotate(111.57)"/>
    </clipPath>
    <clipPath id="clippath-14">
      <rect class="cls-10" x="134.13" y="339.94" width="16.64" height="26.83" transform="translate(465.76 554.9) rotate(143.9)"/>
    </clipPath>
    <clipPath id="clippath-15">
      <rect class="cls-10" x="125.67" y="2.62" width="22.41" height="36.15" transform="translate(248.16 -61.63) rotate(134.91)"/>
    </clipPath>
    <clipPath id="clippath-16">
      <rect class="cls-10" x="56.83" y="171.47" width="16.2" height="26.12" transform="translate(259.42 205.56) rotate(115.56)"/>
    </clipPath>
    <clipPath id="clippath-17">
      <rect class="cls-10" x="219.89" y="89.03" width="9.96" height="16.06" transform="translate(460.43 164.15) rotate(172.55)"/>
    </clipPath>
  </defs>
  <g id="pc">
    <g id="main">
      <g id="content">
        <g id="keynote">
          <g id="_レイヤー_34" data-name="レイヤー 34">
            <g class="cls-24">
              <rect class="cls-16" x="323.06" y="147.78" width="30.92" height="30.92" transform="translate(182.61 -178.72) rotate(39.75)"/>
            </g>
            <g class="cls-12">
              <rect class="cls-11" x="226.74" y="160.05" width="28.3" height="28.3" transform="translate(512.82 54.12) rotate(120.3)"/>
            </g>
            <g class="cls-22">
              <rect class="cls-20" x="141.68" y="225.1" width="37.71" height="37.71" transform="translate(435.82 146.45) rotate(103.84)"/>
            </g>
            <g class="cls-17">
              <rect class="cls-15" x="244.94" y="257.78" width="37.71" height="37.71" transform="translate(265.69 658.89) rotate(-136.65)"/>
            </g>
            <g class="cls-5">
              <rect class="cls-15" x="297.56" y="110.28" width="18.55" height="18.55" transform="translate(588.62 -50.85) rotate(127.55)"/>
            </g>
            <g class="cls-13">
              <rect class="cls-16" x="147.05" y="95.38" width="37.71" height="37.71" transform="translate(304.43 -32) rotate(98.9)"/>
            </g>
            <g class="cls-1">
              <rect class="cls-20" x="5.77" y="96.63" width="18.45" height="18.45" transform="translate(45.01 3.24) rotate(24.37)"/>
            </g>
            <g class="cls-2">
              <rect class="cls-20" x="320.14" y="195.27" width="18.45" height="18.45" transform="translate(113.72 -117.68) rotate(24.37)"/>
            </g>
            <g class="cls-14">
              <rect class="cls-8" x="75.43" y="59.21" width="28.3" height="28.3" transform="translate(159.91 165.33) rotate(-166.72)"/>
            </g>
            <g class="cls-6">
              <rect class="cls-15" x="181.6" y="293.17" width="10.12" height="10.12" transform="translate(536.86 332) rotate(127.55)"/>
            </g>
            <g class="cls-7">
              <rect class="cls-11" x="263.42" y="326.2" width="10.74" height="10.74" transform="translate(101.4 -61.07) rotate(15.94)"/>
            </g>
            <g class="cls-9">
              <rect class="cls-8" x="174.03" y="183.08" width="17.67" height="17.67" transform="translate(347.7 399.53) rotate(-174.83)"/>
            </g>
            <g class="cls-18">
              <rect class="cls-8" x="224.08" y="60.63" width="18.58" height="18.58" transform="translate(389.48 -117.11) rotate(113.17)"/>
            </g>
            <g class="cls-23">
              <rect class="cls-8" x="208" y="362.24" width="22.88" height="22.88" transform="translate(475.08 23.77) rotate(66.57)"/>
            </g>
            <g class="cls-19">
              <rect class="cls-16" x="141.28" y="341.06" width="16.9" height="16.9" transform="translate(518.2 255.64) rotate(98.9)"/>
            </g>
            <g class="cls-4">
              <rect class="cls-15" x="134.37" y="2.67" width="22.77" height="22.77" transform="translate(159.58 -131.72) rotate(89.91)"/>
            </g>
            <g class="cls-21">
              <rect class="cls-11" x="59.62" y="168.11" width="17.82" height="17.82" transform="translate(212.64 53.48) rotate(70.56)"/>
            </g>
            <g class="cls-3">
              <rect class="cls-15" x="224.74" y="92.08" width="10.12" height="10.12" transform="translate(446.86 -25.85) rotate(127.55)"/>
            </g>
          </g>
        </g>
      </g>
    </g>
  </g>
</svg>