<?xml version="1.0" standalone="no"?>
<!DOCTYPE svg PUBLIC "-//W3C//DTD SVG 20010904//EN"
 "http://www.w3.org/TR/2001/REC-SVG-20010904/DTD/svg10.dtd">
<svg version="1.0" xmlns="http://www.w3.org/2000/svg"
 width="700.000000pt" height="700.000000pt" viewBox="0 0 700.000000 700.000000"
 preserveAspectRatio="xMidYMid meet">
<metadata>
Created by potrace 1.14, written by Peter Selinger 2001-2017
</metadata>
<g transform="translate(0.000000,700.000000) scale(0.100000,-0.100000)"
fill="#000000" stroke="none">
<path d="M2527 6965 c-1 -1 -60 -5 -131 -9 -70 -3 -131 -8 -135 -10 -3 -2 -28
-7 -55 -10 -191 -26 -441 -112 -631 -218 -91 -51 -246 -152 -287 -187 -13 -11
-43 -36 -68 -56 -50 -41 -191 -177 -187 -181 1 -1 52 10 112 26 61 15 126 31
145 34 131 22 134 23 145 47 19 43 220 109 333 110 90 2 157 -25 217 -85 79
-79 116 -174 111 -285 -3 -71 -42 -147 -107 -204 -55 -50 -175 -120 -249 -146
-60 -21 -69 -36 -91 -154 -10 -59 -14 -249 -5 -292 3 -18 17 -174 21 -235 2
-37 -31 -120 -60 -150 -24 -25 -24 -28 -9 -41 26 -22 85 -39 136 -39 34 0 64
9 114 36 41 22 70 32 76 26 5 -5 11 -29 14 -53 10 -100 39 -153 107 -196 55
-35 160 -42 223 -14 55 25 210 141 206 155 -2 6 -10 18 -17 26 -7 8 -16 27
-20 41 l-7 27 -41 -24 c-49 -27 -107 -31 -142 -8 -21 13 -57 82 -54 102 7 43
0 49 -60 48 -50 -1 -63 3 -85 23 -14 13 -28 32 -31 42 -35 109 224 316 540
434 55 20 103 39 106 41 4 2 -2 28 -11 57 -11 32 -18 83 -18 123 1 155 88 290
233 359 53 25 71 29 155 29 132 0 192 -25 281 -113 49 -50 72 -81 89 -126 34
-92 37 -176 9 -284 -2 -9 14 -24 40 -39 63 -36 117 -95 135 -149 16 -47 20
-128 7 -173 -10 -36 31 -77 139 -137 139 -78 392 -105 550 -57 211 62 349 228
376 450 41 330 -74 489 -437 608 -103 33 -292 79 -379 91 -25 3 -61 10 -80 15
-55 13 -262 38 -460 55 -124 11 -185 18 -192 22 -16 9 -7 90 16 138 28 62 108
135 184 170 53 24 160 55 242 70 69 13 366 13 465 1 139 -18 164 -12 210 48
19 25 25 45 25 83 0 61 -25 97 -83 123 -38 17 -84 18 -678 16 -351 -1 -641 -4
-644 -8 -3 -3 14 -17 38 -31 43 -26 65 -61 45 -73 -5 -4 -48 13 -95 36 -102
52 -164 58 -194 21 -17 -21 -18 -25 -3 -59 37 -85 28 -91 -74 -50 -87 35 -166
41 -204 16 -43 -28 -17 -73 80 -140 25 -17 42 -37 42 -48 0 -11 -3 -20 -7 -21
-5 0 -44 -2 -88 -3 -186 -6 -241 -66 -141 -152 64 -55 144 -86 255 -98 84 -10
88 -18 39 -72 -40 -44 -52 -63 -43 -72 16 -17 123 -4 188 22 68 28 97 29 97 2
0 -32 -137 -85 -228 -87 -91 -3 -134 50 -99 121 17 32 13 40 -18 40 -36 0
-135 38 -187 71 -92 59 -132 147 -93 205 20 30 86 62 147 70 24 4 44 8 46 9 2
2 -13 24 -32 50 -20 25 -36 55 -36 65 0 33 19 69 45 86 34 22 132 27 189 10
47 -14 56 -12 56 13 0 9 6 28 14 43 13 25 13 26 -15 30 -16 3 -30 4 -32 3z"/>
<path d="M1698 6446 c-32 -7 -60 -15 -63 -17 -16 -17 102 -309 188 -467 l29
-52 31 22 c55 37 108 92 130 133 60 115 -6 301 -127 360 -63 30 -115 36 -188
21z"/>
<path d="M1515 6386 c-17 -13 -17 -17 20 -112 35 -90 135 -311 178 -391 12
-24 22 -31 35 -26 42 15 43 24 13 77 -38 65 -130 277 -167 383 -30 86 -42 96
-79 69z"/>
<path d="M1330 6307 c-225 -45 -464 -127 -640 -219 -209 -110 -351 -216 -515
-382 -136 -138 -169 -196 -170 -301 0 -83 22 -133 79 -179 34 -28 44 -31 110
-31 62 0 80 4 134 33 79 42 97 38 86 -21 -17 -91 -4 -155 41 -201 39 -41 69
-50 129 -44 56 7 123 53 171 118 49 67 65 63 82 -19 16 -79 38 -119 84 -149
28 -20 43 -23 87 -20 91 8 174 86 218 205 17 48 40 76 55 67 4 -2 15 -30 24
-62 21 -70 52 -114 100 -136 64 -31 135 -6 182 63 19 29 22 43 18 119 -2 48
-7 116 -12 152 -11 94 -8 306 5 369 7 29 23 81 37 116 l25 62 -41 84 c-34 69
-81 178 -159 367 -11 25 -39 27 -130 9z"/>
<path d="M3065 5991 c-77 -48 -116 -118 -116 -207 0 -122 63 -174 209 -174 99
0 134 16 163 72 53 103 -8 281 -108 319 -41 15 -116 10 -148 -10z"/>
<path d="M3024 5588 c-260 -20 -544 -116 -748 -252 -181 -121 -249 -212 -170
-232 22 -6 45 3 110 41 17 10 38 16 46 13 14 -6 14 -14 1 -81 -19 -93 -7 -130
43 -135 26 -3 41 6 87 48 74 68 91 65 95 -17 4 -74 32 -113 82 -113 78 0 138
70 164 193 8 35 39 36 63 0 79 -116 167 -146 213 -71 16 27 19 49 17 143 -2
103 0 114 26 167 32 65 98 138 148 164 61 31 159 16 159 -24 0 -29 -19 -42
-46 -32 -75 29 -143 -86 -100 -168 21 -40 47 -60 92 -70 73 -16 171 35 210
110 30 57 11 163 -39 216 -73 79 -245 117 -453 100z"/>
<path d="M3105 5246 c-10 -25 -17 -58 -17 -73 0 -60 5 -193 7 -193 10 0 149
63 183 82 l42 25 -41 12 c-23 7 -54 22 -69 33 -32 23 -67 82 -72 120 -6 44
-15 42 -33 -6z"/>
<path d="M5818 5274 c-2 -1 -23 -5 -47 -9 -51 -7 -150 -50 -206 -88 -102 -69
-183 -174 -230 -297 -17 -44 -32 -70 -42 -70 -8 0 -45 28 -83 63 -120 111
-264 166 -424 161 -186 -5 -305 -82 -308 -199 0 -36 8 -63 35 -115 46 -88 37
-100 -54 -72 -112 34 -212 11 -279 -65 -78 -89 -70 -198 20 -256 19 -13 59
-32 88 -42 35 -13 52 -24 52 -36 0 -20 -14 -25 -92 -34 -228 -24 -377 -133
-378 -275 0 -25 8 -61 18 -80 49 -97 153 -97 541 0 68 18 131 33 140 35 9 2
45 10 81 19 36 8 97 18 135 22 39 4 77 8 85 10 8 1 36 3 62 3 45 1 49 3 67 39
62 118 181 171 306 134 28 -8 67 -23 88 -33 20 -11 37 -16 37 -11 0 5 16 27
36 51 96 111 236 115 344 8 l36 -35 64 39 c90 54 273 118 406 143 16 3 88 16
159 30 72 14 155 30 185 36 147 28 264 80 294 130 53 91 -13 215 -138 256 -65
22 -206 14 -296 -15 -94 -32 -116 -35 -124 -16 -3 10 11 32 40 63 52 54 84
109 84 147 0 40 -27 95 -62 126 -93 81 -237 69 -343 -29 -42 -39 -63 -45 -74
-23 -6 10 -7 21 -4 25 12 12 4 135 -11 163 -18 36 -53 67 -91 81 -29 10 -111
22 -117 16z"/>
<path d="M1237 4982 c-38 -59 -103 -117 -148 -135 -23 -9 -65 -15 -103 -14
-84 3 -138 38 -179 119 l-29 56 -32 -30 c-36 -34 -75 -57 -128 -72 l-37 -12
23 -49 c59 -124 158 -160 278 -99 69 35 82 28 74 -40 -11 -88 27 -156 108
-198 59 -30 119 -26 171 11 24 17 50 31 58 31 16 0 27 -20 27 -48 0 -38 43
-103 81 -122 74 -38 148 -19 224 59 21 23 45 41 53 41 7 0 19 -15 27 -34 56
-135 202 -174 322 -87 22 16 66 66 98 112 32 46 65 90 72 97 22 22 15 32 -24
33 -96 2 -159 27 -220 89 -39 39 -73 110 -73 151 0 16 -4 16 -52 -3 -79 -30
-183 -21 -252 23 -41 26 -63 33 -111 34 -34 1 -74 9 -90 18 -33 16 -84 64
-100 92 -9 16 -14 13 -38 -23z"/>
<path d="M2766 4934 c-9 -23 -8 -24 19 -24 28 0 34 24 9 34 -21 8 -21 8 -28
-10z"/>
<path d="M2735 4845 c-33 -6 -77 -19 -97 -28 -21 -9 -50 -17 -66 -17 -15 0
-53 -15 -84 -33 -98 -60 -183 -144 -278 -277 -200 -281 -302 -606 -295 -939 2
-80 8 -161 14 -179 5 -18 10 -36 10 -40 4 -42 17 -74 32 -83 11 -5 53 -13 94
-16 l75 -5 0 33 c-1 40 -47 217 -81 306 -12 35 -19 66 -15 70 4 4 44 0 90 -10
133 -27 130 -28 122 46 -3 34 -8 73 -11 87 -3 14 -8 40 -11 58 -3 18 -17 70
-30 115 -35 114 -37 127 -20 127 8 0 47 -15 88 -33 125 -57 128 -58 133 -44
14 41 19 115 19 297 1 140 4 205 12 205 6 0 35 -21 65 -47 117 -101 149 -123
167 -111 36 22 138 325 167 495 7 43 9 42 -100 23z"/>
<path d="M535 4768 c2 -24 6 -90 10 -148 3 -58 10 -122 15 -142 4 -20 5 -39 2
-43 -15 -15 13 -2 41 19 109 82 216 76 305 -15 76 -78 70 -180 -21 -328 l-20
-34 46 5 c31 4 59 15 83 34 62 50 62 50 78 34 8 -8 17 -26 19 -40 9 -47 39
-96 73 -120 92 -62 193 -32 286 88 27 33 44 27 74 -28 32 -58 83 -97 145 -108
56 -11 79 -8 128 18 56 28 98 66 126 114 27 46 87 187 82 192 -2 2 -19 -1 -38
-6 -98 -29 -204 -1 -271 72 -35 38 -39 40 -55 26 -71 -62 -191 -80 -269 -40
-47 24 -91 72 -100 108 -5 18 -11 23 -23 19 -136 -57 -280 -2 -342 130 -10 22
-19 53 -19 69 0 23 -3 27 -17 21 -38 -15 -142 -18 -175 -4 -51 20 -95 57 -125
105 -15 24 -31 44 -35 44 -3 0 -5 -19 -3 -42z"/>
<path d="M689 4431 c-70 -39 -69 -43 26 -113 96 -70 152 -104 159 -97 3 2 10
25 17 49 15 57 -3 105 -55 145 -46 35 -100 41 -147 16z"/>
<path d="M580 4327 c0 -7 166 -129 210 -156 68 -41 50 -20 -27 31 -43 29 -88
62 -101 73 -25 23 -82 59 -82 52z"/>
<path d="M468 4178 c-91 -91 -112 -116 -175 -209 -100 -147 -182 -362 -185
-479 -3 -110 70 -179 145 -138 26 14 36 23 66 66 32 45 54 41 82 -15 16 -31
35 -51 55 -59 29 -12 34 -11 65 15 28 24 36 39 44 87 8 49 14 60 31 62 14 2
29 -6 42 -23 50 -64 117 -63 147 2 14 28 16 50 11 103 -6 57 -4 68 9 74 22 8
17 10 60 -24 57 -46 107 -37 128 23 8 23 -2 43 -69 134 -74 99 -110 168 -126
236 l-13 58 -113 80 c-63 43 -118 79 -122 79 -4 0 -41 -33 -82 -72z"/>
<path d="M5594 4144 c-46 -15 -110 -82 -119 -125 -9 -40 -30 -47 -63 -20 -46
37 -134 73 -182 74 -71 1 -126 -34 -170 -105 -26 -43 -25 -51 9 -131 l28 -68
44 37 c24 20 54 40 67 45 42 16 125 10 166 -12 l39 -20 34 36 c41 43 73 57
135 56 48 0 95 -18 117 -45 12 -14 18 -12 56 15 28 20 60 33 89 36 25 3 46 8
46 10 0 5 -36 57 -57 83 -7 8 -26 33 -43 54 -61 78 -125 104 -196 80z"/>
<path d="M987 4033 c-24 -13 -53 -19 -105 -22 -18 -1 25 -79 93 -168 68 -89
85 -123 85 -169 0 -79 -63 -133 -148 -129 l-47 3 40 -19 c73 -34 140 -18 188
45 37 48 61 47 87 -4 59 -115 196 -100 261 27 14 26 32 49 41 51 9 2 32 -13
52 -33 20 -19 47 -40 62 -45 60 -23 144 -3 197 48 49 46 62 83 91 248 l12 72
-38 -24 c-106 -67 -268 -48 -346 40 l-33 38 -47 -36 c-100 -79 -229 -83 -317
-12 -23 19 -50 51 -59 71 -18 38 -27 40 -69 18z"/>
<path d="M5820 3842 c-19 -9 -46 -34 -59 -54 -32 -50 -59 -49 -90 2 -56 90
-156 75 -209 -31 -23 -45 -45 -47 -87 -7 -20 18 -47 36 -61 40 -64 17 -131
-17 -165 -84 -19 -37 -20 -50 -13 -142 5 -56 7 -112 6 -124 l-3 -24 35 27 c85
65 198 77 289 30 26 -14 47 -21 47 -16 0 17 75 84 110 99 55 23 133 18 184
-12 24 -14 46 -32 50 -41 4 -12 13 -10 53 15 41 26 56 30 118 30 42 0 76 -5
83 -12 25 -25 12 16 -30 91 -105 192 -179 253 -258 213z"/>
<path d="M4859 3765 c-10 -10 27 -169 68 -288 20 -59 33 -110 30 -113 -5 -6
-50 1 -176 25 l-43 9 6 -80 c3 -44 8 -84 11 -88 3 -4 7 -24 11 -45 3 -20 18
-80 34 -133 38 -127 37 -128 -62 -83 -119 55 -139 61 -143 48 -15 -42 -23
-175 -20 -325 1 -95 -1 -175 -6 -178 -5 -3 -37 19 -72 48 -103 90 -147 120
-162 115 -22 -9 -73 -131 -128 -312 -12 -40 -47 -203 -47 -221 0 -4 69 3 121
11 15 3 46 14 70 25 24 11 59 20 77 20 76 0 244 144 362 310 81 115 151 246
203 386 19 50 64 217 71 264 3 19 8 46 11 60 13 54 12 312 -1 387 -21 120 -25
133 -45 144 -23 12 -161 24 -170 14z"/>
<path d="M6492 3650 c-38 -23 -52 -49 -61 -109 -8 -59 -36 -67 -74 -22 -36 43
-66 53 -105 34 -41 -20 -56 -67 -48 -148 5 -52 4 -64 -10 -69 -21 -8 -16 -10
-59 24 -57 46 -107 37 -128 -23 -9 -23 1 -41 81 -152 71 -99 106 -168 117
-232 6 -40 12 -46 122 -123 63 -44 119 -80 124 -80 14 0 161 150 210 215 94
124 159 252 204 401 51 165 27 272 -65 291 -41 8 -71 -10 -110 -63 -41 -57
-62 -57 -90 1 -12 25 -34 52 -49 60 -25 12 -31 12 -59 -5z"/>
<path d="M1840 3565 c-7 -8 -37 -27 -67 -41 -73 -36 -160 -37 -227 -3 l-46 23
-43 -43 c-52 -54 -97 -74 -165 -73 -56 0 -134 36 -146 67 -5 13 -12 11 -48
-12 -38 -26 -50 -28 -133 -28 l-91 0 45 -80 c68 -123 131 -202 171 -219 60
-24 115 -2 152 60 28 47 58 46 86 -5 53 -94 175 -71 214 41 13 37 45 36 83 -3
37 -38 59 -47 107 -44 49 4 93 37 119 88 19 36 20 50 13 136 -4 53 -7 108 -7
124 2 31 0 32 -17 12z"/>
<path d="M5645 3496 c-37 -16 -62 -43 -89 -98 -12 -24 -28 -44 -37 -46 -8 -1
-33 14 -54 33 -61 58 -120 70 -193 39 -95 -39 -124 -94 -158 -304 -3 -19 -8
-38 -11 -42 -7 -13 2 -10 57 18 107 54 243 35 325 -46 l41 -41 30 26 c55 49
104 68 179 68 53 1 80 -4 112 -21 42 -22 103 -86 103 -109 0 -22 20 -25 54 -9
30 14 71 23 114 25 18 1 -13 58 -92 168 -36 51 -71 104 -76 118 -39 102 40
197 150 180 l35 -6 -30 17 c-69 40 -146 25 -196 -37 -17 -21 -38 -39 -48 -39
-10 0 -27 18 -40 41 -40 71 -107 95 -176 65z"/>
<path d="M1872 3205 c-56 -64 -167 -85 -243 -46 l-41 22 -22 -24 c-11 -13 -36
-34 -54 -47 -57 -39 -169 -26 -211 23 -10 13 -18 11 -59 -17 -29 -19 -63 -33
-87 -34 -22 -2 -41 -5 -44 -7 -3 -4 87 -127 124 -169 47 -54 122 -73 182 -46
46 20 99 81 109 122 8 39 30 45 62 19 44 -35 84 -54 140 -67 55 -13 84 -9 139
19 32 17 93 99 93 126 0 19 -53 151 -61 151 -3 0 -15 -11 -27 -25z"/>
<path d="M2860 3204 c-41 -6 -167 -35 -280 -62 -266 -66 -406 -90 -527 -92
-27 0 -36 -6 -52 -37 -74 -146 -228 -186 -393 -102 l-37 19 -15 -27 c-18 -36
-62 -76 -105 -98 -79 -40 -182 -19 -255 51 l-42 42 -54 -34 c-83 -52 -282
-122 -420 -148 -472 -87 -580 -120 -629 -192 -61 -89 4 -216 133 -260 69 -24
207 -14 314 21 74 24 86 26 98 13 13 -13 9 -21 -35 -68 -52 -55 -81 -104 -81
-137 0 -45 24 -99 58 -130 96 -88 239 -75 356 32 21 19 42 35 47 35 11 0 30
-36 22 -43 -12 -13 -4 -135 10 -163 35 -67 90 -96 182 -96 209 1 424 167 510
392 17 44 32 70 42 70 8 0 44 -27 80 -60 144 -132 333 -190 508 -158 210 39
283 174 180 330 -24 35 -25 42 -12 55 12 13 22 12 77 -5 128 -39 242 -2 305
98 38 60 35 140 -7 190 -23 28 -72 57 -125 74 -39 13 -53 23 -53 36 0 22 13
26 95 35 221 22 374 135 375 275 0 127 -88 174 -270 144z"/>
<path d="M5260 3060 c-55 -10 -115 -46 -153 -90 -29 -34 -76 -128 -113 -224
-4 -12 1 -13 33 -5 112 26 222 -5 283 -79 27 -33 31 -35 47 -20 71 62 191 80
269 40 47 -24 91 -72 100 -108 3 -13 7 -24 9 -24 1 0 22 7 45 15 60 21 117 18
175 -9 87 -40 154 -127 155 -200 0 -23 3 -27 18 -21 40 17 147 17 186 0 45
-19 124 -97 132 -131 11 -45 22 -14 18 53 -9 161 -25 313 -32 313 -2 0 -27
-17 -55 -37 -43 -32 -60 -38 -113 -41 -54 -4 -69 0 -113 24 -71 38 -111 100
-111 171 0 60 24 130 63 188 23 34 25 41 11 43 -34 8 -83 -10 -123 -45 -52
-44 -68 -39 -88 32 -19 63 -40 91 -85 115 -48 26 -102 27 -155 5 -38 -15 -58
-33 -115 -104 -26 -31 -45 -26 -68 18 -46 91 -133 138 -220 121z"/>
<path d="M6240 2794 c47 -31 104 -71 128 -91 23 -19 42 -30 42 -25 0 15 -223
172 -244 172 -6 0 28 -25 74 -56z"/>
<path d="M6112 2741 c-18 -57 -15 -74 18 -119 29 -41 83 -72 122 -72 23 0 90
33 106 53 10 12 0 24 -60 68 -101 75 -152 109 -164 109 -6 0 -16 -17 -22 -39z"/>
<path d="M5052 2681 c-54 -14 -109 -58 -156 -124 -25 -34 -61 -83 -81 -109
l-36 -48 43 -1 c68 -1 100 -8 144 -30 79 -40 138 -115 151 -193 l5 -32 52 18
c88 31 197 17 269 -34 24 -17 47 -23 93 -24 75 -1 141 -35 174 -89 12 -19 23
-35 24 -35 2 0 16 18 30 41 70 106 132 143 238 144 69 0 80 -3 119 -30 29 -20
54 -50 72 -86 l28 -56 32 29 c34 32 87 62 130 72 33 8 35 28 6 76 -69 115
-159 144 -269 84 -66 -36 -85 -28 -76 33 12 89 -27 164 -108 205 -60 31 -114
27 -169 -11 -61 -42 -74 -40 -87 12 -24 97 -76 147 -154 147 -52 0 -82 -15
-140 -70 -58 -55 -78 -57 -94 -12 -13 37 -58 90 -94 108 -36 19 -102 25 -146
15z"/>
<path d="M4751 2328 c-19 -5 -78 -41 -132 -80 l-96 -71 26 -52 26 -51 39 24
c32 20 48 23 88 20 69 -7 109 -59 104 -136 l-2 -29 64 1 c60 1 65 -1 93 -32
47 -52 31 -111 -49 -189 -109 -105 -290 -213 -467 -278 -55 -20 -103 -39 -106
-41 -4 -2 0 -23 9 -46 21 -59 24 -177 6 -237 -41 -140 -149 -244 -289 -280
-73 -19 -186 -6 -258 28 -84 40 -167 127 -197 208 -28 71 -35 193 -16 257 l13
44 -40 19 c-109 48 -165 153 -153 286 5 66 4 74 -17 93 -184 171 -548 215
-777 93 -185 -98 -278 -285 -273 -546 5 -255 164 -396 565 -502 62 -17 129
-33 148 -36 19 -3 42 -8 50 -10 8 -2 31 -6 50 -9 19 -3 46 -8 60 -10 48 -10
161 -27 208 -32 26 -3 58 -7 72 -9 14 -2 57 -6 95 -10 39 -3 90 -8 115 -10 25
-3 77 -7 115 -11 39 -3 74 -10 80 -15 15 -14 6 -76 -19 -132 -49 -111 -201
-204 -381 -233 -20 -3 -47 -8 -59 -11 -37 -9 -359 -12 -421 -3 -165 23 -193
18 -239 -42 -20 -27 -26 -46 -26 -85 0 -61 25 -97 84 -124 38 -17 81 -18 678
-15 351 1 640 5 643 8 3 3 -14 17 -38 32 -48 27 -60 45 -47 67 7 11 26 5 93
-29 48 -25 101 -44 125 -46 75 -6 102 37 66 105 -29 56 -14 62 73 30 123 -45
198 -46 230 -4 18 24 -7 60 -78 112 -36 26 -59 51 -59 62 0 11 3 19 8 20 4 0
48 2 97 4 97 3 133 13 164 44 39 39 -4 102 -101 152 -58 29 -105 42 -192 54
-81 10 -82 15 -26 80 32 37 38 50 29 61 -18 22 -74 17 -170 -17 -88 -30 -109
-31 -109 -5 0 40 192 101 268 85 67 -14 88 -59 57 -120 -12 -23 -13 -30 -3
-33 7 -2 36 -9 63 -15 75 -18 154 -59 201 -106 112 -112 40 -228 -146 -234
-14 -1 -20 -5 -14 -9 25 -17 74 -97 74 -122 0 -35 -32 -75 -69 -88 -31 -11
-122 -9 -183 3 -32 6 -38 5 -38 -9 0 -9 -7 -30 -15 -46 -18 -35 -26 -32 99
-30 78 1 150 7 214 15 17 3 49 7 70 10 78 11 245 56 338 91 224 83 404 186
594 337 78 62 233 207 227 213 -1 1 -62 -13 -136 -31 -74 -19 -158 -37 -186
-40 -58 -8 -65 -11 -81 -40 -15 -27 -139 -76 -259 -101 -11 -2 -50 -5 -87 -5
-106 -1 -186 45 -256 147 -60 87 -76 242 -34 321 32 61 77 109 145 155 71 48
204 111 217 103 16 -10 47 67 65 160 5 30 6 238 1 285 -30 269 -25 311 41 382
l26 27 -34 20 c-71 43 -159 40 -246 -10 -64 -37 -74 -32 -79 38 -1 26 -8 61
-14 78 -43 112 -172 170 -299 133z"/>
<path d="M4360 2117 c-42 -27 -70 -74 -85 -141 -10 -44 -15 -51 -35 -51 -16 0
-33 13 -55 45 -56 80 -123 109 -172 75 -32 -22 -42 -69 -40 -180 2 -91 0 -105
-26 -157 -31 -64 -97 -137 -146 -163 -62 -32 -161 -17 -161 23 0 29 19 42 46
32 53 -21 114 39 114 111 0 42 -34 98 -70 116 -60 31 -152 9 -206 -49 -44 -46
-54 -69 -54 -123 0 -159 142 -245 412 -247 141 -1 316 29 483 83 206 68 489
240 545 332 24 39 24 41 3 62 -21 21 -61 14 -111 -20 -66 -45 -89 -27 -66 50
17 60 11 115 -15 137 -20 16 -26 16 -56 4 -19 -8 -50 -33 -71 -56 -25 -27 -44
-40 -58 -38 -18 3 -21 11 -24 65 -2 48 -8 67 -27 87 -31 33 -80 34 -125 3z"/>
<path d="M5923 2089 c-59 -29 -99 -78 -144 -176 -45 -97 -60 -100 -84 -15 -21
72 -47 107 -96 133 -66 33 -133 13 -183 -55 -24 -31 -27 -111 -12 -256 13
-117 12 -324 -2 -389 -7 -29 -24 -81 -37 -116 l-25 -62 55 -115 c31 -63 77
-169 103 -234 l48 -119 38 -1 c20 0 65 6 99 13 34 7 76 15 92 18 17 3 62 15
100 26 238 68 442 162 640 294 142 96 167 116 306 255 133 134 171 196 175
293 8 191 -148 280 -328 187 -76 -40 -93 -35 -82 23 20 111 -10 198 -82 232
-81 38 -188 -5 -261 -106 -49 -69 -71 -66 -79 13 -5 59 -43 129 -83 155 -43
29 -102 30 -158 2z"/>
<path d="M4180 2082 c0 -4 10 -13 21 -21 18 -11 23 -11 30 1 15 22 10 28 -21
28 -16 0 -30 -3 -30 -8z"/>
<path d="M3870 2009 c-8 -4 -55 -26 -103 -49 -85 -41 -94 -49 -65 -54 87 -15
155 -86 161 -166 1 -17 5 -30 9 -30 10 0 40 86 40 117 -1 186 -5 201 -42 182z"/>
<path d="M3727 1372 c-40 -25 -67 -87 -67 -155 0 -122 90 -230 190 -229 113 2
199 100 200 227 0 125 -60 175 -210 175 -63 0 -92 -5 -113 -18z"/>
<path d="M5238 1134 l-27 -14 59 -117 c55 -111 142 -321 156 -378 3 -14 10
-25 15 -25 13 0 59 23 59 29 0 34 -209 503 -229 515 -3 2 -18 -2 -33 -10z"/>
<path d="M5112 1065 c-143 -98 -182 -216 -120 -355 55 -123 169 -185 291 -159
94 20 90 18 82 47 -22 88 -165 416 -205 468 l-16 21 -32 -22z"/>
</g>
</svg>
